<svg xmlns="http://www.w3.org/2000/svg" xmlns:xlink="http://www.w3.org/1999/xlink" width="500" zoomAndPan="magnify" viewBox="0 0 375 374.999991" height="500" preserveAspectRatio="xMidYMid meet" version="1.0"><defs><g/></defs><g fill="#8dcc3d" fill-opacity="1"><g transform="translate(74.443247, 223.697145)"><g><path d="M 37.6875 -21.421875 L 37.6875 0.15625 L 32.1875 0.15625 L 31.859375 -3.390625 C 30.316406 -1.953125 28.703125 -0.9375 27.015625 -0.34375 C 25.328125 0.238281 23.375 0.53125 21.15625 0.53125 C 17.78125 0.53125 14.726562 -0.226562 12 -1.75 C 9.269531 -3.269531 7.109375 -5.472656 5.515625 -8.359375 C 3.921875 -11.253906 3.125 -14.75 3.125 -18.84375 C 3.125 -21.632812 3.609375 -24.210938 4.578125 -26.578125 C 5.546875 -28.953125 6.898438 -31.007812 8.640625 -32.75 C 10.378906 -34.488281 12.390625 -35.832031 14.671875 -36.78125 C 16.953125 -37.738281 19.382812 -38.21875 21.96875 -38.21875 C 24.582031 -38.21875 27.03125 -37.722656 29.3125 -36.734375 C 31.59375 -35.742188 33.570312 -34.390625 35.25 -32.671875 L 30.84375 -28.265625 C 29.726562 -29.410156 28.398438 -30.304688 26.859375 -30.953125 C 25.316406 -31.597656 23.6875 -31.921875 21.96875 -31.921875 C 19.664062 -31.921875 17.5625 -31.398438 15.65625 -30.359375 C 13.757812 -29.316406 12.242188 -27.828125 11.109375 -25.890625 C 9.984375 -23.953125 9.421875 -21.601562 9.421875 -18.84375 C 9.421875 -15.789062 9.984375 -13.296875 11.109375 -11.359375 C 12.242188 -9.421875 13.757812 -8.003906 15.65625 -7.109375 C 17.5625 -6.210938 19.664062 -5.765625 21.96875 -5.765625 C 23.863281 -5.765625 25.617188 -6.140625 27.234375 -6.890625 C 28.847656 -7.640625 30.226562 -8.679688 31.375 -10.015625 L 31.375 -15.453125 L 25.078125 -15.453125 L 25.078125 -21.421875 Z M 37.6875 -21.421875 "/></g></g></g><g fill="#8dcc3d" fill-opacity="1"><g transform="translate(118.899224, 223.697145)"><g><path d="M 21.640625 -4.359375 L 8.390625 -4.359375 L 6.78125 0 L 0 0 L 15.015625 -38.75 L 30.09375 0 L 23.3125 0 Z M 10.4375 -9.796875 L 19.59375 -9.796875 L 15.015625 -22.875 Z M 10.4375 -9.796875 "/></g></g></g><g fill="#8dcc3d" fill-opacity="1"><g transform="translate(151.837644, 223.697145)"><g><path d="M 24 0 L 14.203125 -15.71875 L 10.609375 -15.71875 L 10.609375 0 L 4.3125 0 L 4.3125 -21.96875 L 10.28125 -21.96875 L 4.3125 -31.375 L 4.3125 -37.6875 L 16.84375 -37.6875 C 16.84375 -37.6875 17.144531 -37.664062 17.75 -37.625 C 18.363281 -37.59375 19.144531 -37.476562 20.09375 -37.28125 C 21.050781 -37.082031 22.066406 -36.757812 23.140625 -36.3125 C 24.222656 -35.863281 25.238281 -35.234375 26.1875 -34.421875 C 27.132812 -33.617188 27.910156 -32.585938 28.515625 -31.328125 C 29.128906 -30.066406 29.4375 -28.523438 29.4375 -26.703125 C 29.4375 -24.472656 29 -22.65625 28.125 -21.25 C 27.25 -19.851562 26.171875 -18.78125 24.890625 -18.03125 C 23.617188 -17.28125 22.375 -16.722656 21.15625 -16.359375 L 31.375 0 Z M 17.65625 -22.015625 C 18.226562 -22.085938 18.941406 -22.25 19.796875 -22.5 C 20.660156 -22.75 21.429688 -23.207031 22.109375 -23.875 C 22.796875 -24.539062 23.140625 -25.484375 23.140625 -26.703125 C 23.140625 -27.878906 22.828125 -28.78125 22.203125 -29.40625 C 21.578125 -30.039062 20.84375 -30.5 20 -30.78125 C 19.15625 -31.070312 18.414062 -31.242188 17.78125 -31.296875 C 17.15625 -31.347656 16.84375 -31.375 16.84375 -31.375 L 11.78125 -31.375 Z M 17.65625 -22.015625 "/></g></g></g><g fill="#8dcc3d" fill-opacity="1"><g transform="translate(187.628541, 223.697145)"><g><path d="M 10.546875 -37.6875 C 12.378906 -37.6875 14.304688 -37.554688 16.328125 -37.296875 C 18.359375 -37.046875 20.332031 -36.5625 22.25 -35.84375 C 24.175781 -35.125 25.910156 -34.070312 27.453125 -32.6875 C 28.992188 -31.3125 30.226562 -29.492188 31.15625 -27.234375 C 32.09375 -24.972656 32.5625 -22.175781 32.5625 -18.84375 C 32.5625 -15.613281 32.101562 -12.894531 31.1875 -10.6875 C 30.28125 -8.476562 29.050781 -6.664062 27.5 -5.25 C 25.957031 -3.832031 24.234375 -2.742188 22.328125 -1.984375 C 20.429688 -1.234375 18.457031 -0.710938 16.40625 -0.421875 C 14.363281 -0.140625 12.410156 0 10.546875 0 L 4.25 0 L 4.25 -37.6875 Z M 10.546875 -6.140625 C 10.546875 -6.140625 10.921875 -6.109375 11.671875 -6.046875 C 12.429688 -5.992188 13.398438 -6.019531 14.578125 -6.125 C 15.765625 -6.238281 17.03125 -6.5 18.375 -6.90625 C 19.726562 -7.320312 20.992188 -7.992188 22.171875 -8.921875 C 23.359375 -9.859375 24.328125 -11.125 25.078125 -12.71875 C 25.835938 -14.320312 26.21875 -16.363281 26.21875 -18.84375 C 26.21875 -21.351562 25.835938 -23.414062 25.078125 -25.03125 C 24.328125 -26.644531 23.359375 -27.914062 22.171875 -28.84375 C 20.992188 -29.78125 19.726562 -30.445312 18.375 -30.84375 C 17.03125 -31.238281 15.765625 -31.476562 14.578125 -31.5625 C 13.398438 -31.65625 12.429688 -31.675781 11.671875 -31.625 C 10.921875 -31.570312 10.546875 -31.546875 10.546875 -31.546875 Z M 10.546875 -6.140625 "/></g></g></g><g fill="#8dcc3d" fill-opacity="1"><g transform="translate(226.110458, 223.697145)"><g><path d="M 10.546875 -31.375 L 10.546875 -21.96875 L 26.21875 -21.96875 L 26.21875 -15.71875 L 10.546875 -15.71875 L 10.546875 -6.296875 L 29.390625 -6.296875 L 29.390625 0 L 4.25 0 L 4.25 -37.6875 L 29.390625 -37.6875 L 29.390625 -31.375 Z M 10.546875 -31.375 "/></g></g></g><g fill="#8dcc3d" fill-opacity="1"><g transform="translate(260.609673, 223.697145)"><g><path d="M 35.640625 0 L 29.28125 0 L 10.546875 -26.8125 L 10.546875 0 L 4.25 0 L 4.25 -37.6875 L 10.609375 -37.6875 L 29.390625 -10.875 L 29.390625 -37.6875 L 35.640625 -37.6875 Z M 35.640625 0 "/></g></g></g><g fill="#000000" fill-opacity="1"><g transform="translate(146.544252, 182.301392)"><g><path d="M 22.59375 -5.953125 C 24.375 -5.953125 26.0625 -6.296875 27.65625 -6.984375 C 29.25 -7.671875 30.625 -8.585938 31.78125 -9.734375 L 36.34375 -5.125 C 34.601562 -3.375 32.550781 -1.988281 30.1875 -0.96875 C 27.832031 0.0507812 25.300781 0.5625 22.59375 0.5625 C 19.925781 0.5625 17.40625 0.0976562 15.03125 -0.828125 C 12.65625 -1.753906 10.578125 -3.097656 8.796875 -4.859375 C 7.015625 -6.628906 5.613281 -8.75 4.59375 -11.21875 C 3.570312 -13.6875 3.0625 -16.441406 3.0625 -19.484375 C 3.0625 -23.410156 3.894531 -26.875 5.5625 -29.875 C 7.226562 -32.882812 9.535156 -35.242188 12.484375 -36.953125 C 15.441406 -38.660156 18.8125 -39.515625 22.59375 -39.515625 C 25.300781 -39.515625 27.832031 -39.003906 30.1875 -37.984375 C 32.550781 -36.960938 34.601562 -35.5625 36.34375 -33.78125 L 31.78125 -29.21875 C 30.625 -30.40625 29.25 -31.332031 27.65625 -32 C 26.0625 -32.664062 24.375 -33 22.59375 -33 C 19.925781 -33 17.625 -32.414062 15.6875 -31.25 C 13.757812 -30.082031 12.273438 -28.488281 11.234375 -26.46875 C 10.203125 -24.445312 9.6875 -22.117188 9.6875 -19.484375 C 9.6875 -16.703125 10.257812 -14.296875 11.40625 -12.265625 C 12.5625 -10.242188 14.117188 -8.6875 16.078125 -7.59375 C 18.046875 -6.5 20.21875 -5.953125 22.59375 -5.953125 Z M 22.59375 -5.953125 "/></g></g></g><g fill="#000000" fill-opacity="1"><g transform="translate(188.120292, 182.301392)"><g><path d="M 17.640625 -10.578125 C 15.640625 -10.578125 13.765625 -10.957031 12.015625 -11.71875 C 10.273438 -12.476562 8.742188 -13.515625 7.421875 -14.828125 C 6.109375 -16.148438 5.070312 -17.679688 4.3125 -19.421875 C 3.550781 -21.171875 3.171875 -23.046875 3.171875 -25.046875 C 3.171875 -27.046875 3.550781 -28.914062 4.3125 -30.65625 C 5.070312 -32.40625 6.109375 -33.9375 7.421875 -35.25 C 8.742188 -36.570312 10.273438 -37.613281 12.015625 -38.375 C 13.765625 -39.132812 15.640625 -39.515625 17.640625 -39.515625 C 19.648438 -39.515625 21.523438 -39.132812 23.265625 -38.375 C 25.003906 -37.613281 26.53125 -36.570312 27.84375 -35.25 C 29.164062 -33.9375 30.207031 -32.40625 30.96875 -30.65625 C 31.726562 -28.914062 32.109375 -27.046875 32.109375 -25.046875 C 32.109375 -23.046875 31.726562 -21.171875 30.96875 -19.421875 C 30.207031 -17.679688 29.164062 -16.148438 27.84375 -14.828125 C 26.53125 -13.515625 25.003906 -12.476562 23.265625 -11.71875 C 21.523438 -10.957031 19.648438 -10.578125 17.640625 -10.578125 Z M 17.640625 -33.0625 C 16.160156 -33.0625 14.816406 -32.695312 13.609375 -31.96875 C 12.398438 -31.25 11.429688 -30.285156 10.703125 -29.078125 C 9.984375 -27.867188 9.625 -26.523438 9.625 -25.046875 C 9.625 -23.554688 9.984375 -22.207031 10.703125 -21 C 11.429688 -19.800781 12.398438 -18.835938 13.609375 -18.109375 C 14.816406 -17.390625 16.160156 -17.03125 17.640625 -17.03125 C 19.128906 -17.03125 20.472656 -17.390625 21.671875 -18.109375 C 22.878906 -18.835938 23.84375 -19.800781 24.5625 -21 C 25.289062 -22.207031 25.65625 -23.554688 25.65625 -25.046875 C 25.65625 -26.523438 25.289062 -27.867188 24.5625 -29.078125 C 23.84375 -30.285156 22.878906 -31.25 21.671875 -31.96875 C 20.472656 -32.695312 19.128906 -33.0625 17.640625 -33.0625 Z M 30.328125 0 L 4.625 0 L 4.625 -6.453125 L 30.328125 -6.453125 Z M 30.328125 0 "/></g></g></g><g fill="#000000" fill-opacity="1"><g transform="translate(226.579572, 182.301392)"><g><path d="M 10.90625 -38.953125 C 12.800781 -38.953125 14.796875 -38.820312 16.890625 -38.5625 C 18.984375 -38.3125 21.019531 -37.8125 23 -37.0625 C 24.988281 -36.320312 26.78125 -35.238281 28.375 -33.8125 C 29.976562 -32.382812 31.257812 -30.5 32.21875 -28.15625 C 33.1875 -25.820312 33.671875 -22.929688 33.671875 -19.484375 C 33.671875 -16.140625 33.195312 -13.328125 32.25 -11.046875 C 31.300781 -8.765625 30.03125 -6.890625 28.4375 -5.421875 C 26.84375 -3.960938 25.0625 -2.84375 23.09375 -2.0625 C 21.125 -1.28125 19.082031 -0.738281 16.96875 -0.4375 C 14.851562 -0.144531 12.832031 0 10.90625 0 L 4.390625 0 L 4.390625 -38.953125 Z M 10.90625 -6.34375 C 10.90625 -6.34375 11.296875 -6.3125 12.078125 -6.25 C 12.859375 -6.195312 13.859375 -6.226562 15.078125 -6.34375 C 16.304688 -6.457031 17.613281 -6.726562 19 -7.15625 C 20.394531 -7.582031 21.703125 -8.273438 22.921875 -9.234375 C 24.148438 -10.203125 25.15625 -11.507812 25.9375 -13.15625 C 26.71875 -14.8125 27.109375 -16.921875 27.109375 -19.484375 C 27.109375 -22.078125 26.71875 -24.207031 25.9375 -25.875 C 25.15625 -27.550781 24.148438 -28.867188 22.921875 -29.828125 C 21.703125 -30.796875 20.394531 -31.484375 19 -31.890625 C 17.613281 -32.296875 16.304688 -32.546875 15.078125 -32.640625 C 13.859375 -32.734375 12.859375 -32.75 12.078125 -32.6875 C 11.296875 -32.632812 10.90625 -32.609375 10.90625 -32.609375 Z M 10.90625 -6.34375 "/></g></g></g><g fill="#000000" fill-opacity="1"><g transform="translate(266.374605, 182.301392)"><g><path d="M 10.90625 -32.453125 L 10.90625 -22.703125 L 27.109375 -22.703125 L 27.109375 -16.25 L 10.90625 -16.25 L 10.90625 -6.515625 L 30.390625 -6.515625 L 30.390625 0 L 4.390625 0 L 4.390625 -38.953125 L 30.390625 -38.953125 L 30.390625 -32.453125 Z M 10.90625 -32.453125 "/></g></g></g><g fill="#000000" fill-opacity="1"><g transform="translate(77.383857, 183.074551)"><g><path d="M 18.796875 -30.890625 L 9.34375 -20.875 L 18.796875 -10.984375 L 14.71875 -6.71875 L 1.28125 -20.875 L 14.71875 -35.109375 Z M 18.796875 -30.890625 "/></g></g></g><g fill="#000000" fill-opacity="1"><g transform="translate(92.521193, 183.074551)"><g/></g></g><g fill="#000000" fill-opacity="1"><g transform="translate(107.412017, 183.074551)"><g/></g></g><g fill="#000000" fill-opacity="1"><g transform="translate(122.312631, 183.074551)"><g><path d="M 6.40625 -35.109375 L 19.84375 -20.875 L 6.40625 -6.71875 L 2.3125 -10.984375 L 11.78125 -20.875 L 2.3125 -30.890625 Z M 6.40625 -35.109375 "/></g></g></g><g fill="#000000" fill-opacity="1"><g transform="translate(101.509296, 176.387703)"><g><path d="M 17.21875 -27.578125 C 17.34375 -27.578125 17.4375 -27.535156 17.5 -27.453125 C 17.570312 -27.378906 17.582031 -27.273438 17.53125 -27.140625 L 4.921875 -0.15625 C 4.867188 -0.0195312 4.75 0.046875 4.5625 0.046875 L 0.078125 0.046875 C -0.0546875 0.046875 -0.15625 0 -0.21875 -0.09375 C -0.28125 -0.1875 -0.285156 -0.285156 -0.234375 -0.390625 L 12.25 -27.375 C 12.332031 -27.507812 12.453125 -27.578125 12.609375 -27.578125 Z M 17.21875 -27.578125 "/></g></g></g></svg>