<svg xmlns="http://www.w3.org/2000/svg" xmlns:xlink="http://www.w3.org/1999/xlink" width="500" zoomAndPan="magnify" viewBox="0 0 375 374.999991" height="500" preserveAspectRatio="xMidYMid meet" version="1.0"><defs><g/><clipPath id="a11f041a83"><path d="M 153 197.027344 L 374.535156 197.027344 L 374.535156 375 L 153 375 Z M 153 197.027344 " clip-rule="nonzero"/></clipPath><clipPath id="4a90778174"><path d="M 152.761719 197.027344 L 374.535156 197.027344 L 374.535156 375 L 152.761719 375 Z M 152.761719 197.027344 " clip-rule="nonzero"/></clipPath><clipPath id="36f62c07d9"><path d="M 0 197.027344 L 178 197.027344 L 178 375 L 0 375 Z M 0 197.027344 " clip-rule="nonzero"/></clipPath><clipPath id="1f525aff91"><path d="M 0 197.027344 L 178.175781 197.027344 L 178.175781 375 L 0 375 Z M 0 197.027344 " clip-rule="nonzero"/></clipPath><clipPath id="35c861aa92"><path d="M 0 43.472656 L 227.460938 43.472656 L 227.460938 202.695312 L 0 202.695312 Z M 0 43.472656 " clip-rule="nonzero"/></clipPath><clipPath id="40d496d449"><path d="M 215.519531 43.472656 L 374.742188 43.472656 L 374.742188 202.695312 L 215.519531 202.695312 Z M 215.519531 43.472656 " clip-rule="nonzero"/></clipPath><clipPath id="d2df0d80be"><path d="M 215.519531 43.472656 L 374.742188 43.472656 L 374.742188 202.695312 L 215.519531 202.695312 Z M 215.519531 43.472656 " clip-rule="nonzero"/></clipPath></defs><g clip-path="url(#a11f041a83)"><path fill="#f6f4e7" d="M 153.230469 197.765625 L 374.523438 197.765625 L 374.523438 374.859375 L 153.230469 374.859375 Z M 153.230469 197.765625 " fill-opacity="1" fill-rule="nonzero"/></g><path fill="#85c8ff" d="M 373.429688 198.65625 L 373.429688 304.875 L 360.210938 312.234375 L 318.578125 334.308594 L 313.503906 327.882812 L 301.542969 313.910156 C 301.542969 313.910156 288.492188 299.980469 287.488281 299.226562 C 286.484375 298.472656 280.398438 293.96875 280.398438 293.96875 L 267.664062 290.832031 L 263.296875 291.007812 L 268.160156 281.28125 L 272.527344 256.558594 L 271.046875 243.882812 L 272.527344 240.117188 L 270.839844 234.511719 L 260.800781 223.132812 L 253.269531 218.402344 L 244.402344 213.597656 L 234.695312 211.476562 L 218.792969 212.972656 L 207.96875 217.476562 L 201.136719 222.207031 L 190.890625 233.585938 L 182.738281 249.339844 L 182.738281 259.109375 L 184.832031 266.765625 L 175.796875 266.765625 L 167.492188 273.796875 C 167.492188 273.796875 165.058594 277.515625 165.058594 280.359375 C 165.0625 283.207031 166.574219 291.007812 166.574219 291.007812 L 154.324219 301.109375 L 154.324219 198.65625 Z M 373.429688 198.65625 " fill-opacity="1" fill-rule="nonzero"/><g clip-path="url(#4a90778174)"><path fill="#000000" d="M 256.132812 285.996094 C 255.082031 286.351562 253.972656 286.53125 252.847656 286.53125 C 250.917969 286.53125 248.945312 286.011719 247.136719 285 C 246.386719 284.582031 246.117188 283.636719 246.535156 282.886719 C 246.953125 282.136719 247.902344 281.867188 248.652344 282.285156 C 250.75 283.457031 253.113281 283.738281 255.128906 283.050781 C 256.429688 282.609375 257.449219 281.78125 257.851562 280.84375 C 258.441406 279.46875 258.046875 277.039062 256.378906 275.5 C 255.445312 274.640625 254.359375 274.316406 253.609375 274.199219 C 253.203125 274.132812 252.835938 273.910156 252.59375 273.570312 C 252.351562 273.234375 252.253906 272.816406 252.320312 272.40625 L 254.578125 258.855469 C 254.722656 258.007812 255.523438 257.433594 256.371094 257.574219 C 257.21875 257.714844 257.789062 258.519531 257.648438 259.363281 L 255.625 271.507812 C 256.539062 271.828125 257.550781 272.351562 258.484375 273.214844 C 260.949219 275.480469 261.902344 279.289062 260.710938 282.070312 C 259.953125 283.832031 258.285156 285.265625 256.132812 285.996094 Z M 239.800781 254.652344 C 238.3125 254.34375 236.789062 254.253906 235.273438 254.394531 C 233.796875 254.527344 232.347656 254.875 230.972656 255.421875 C 230.171875 255.742188 229.785156 256.644531 230.101562 257.445312 C 230.34375 258.054688 230.929688 258.425781 231.546875 258.425781 C 231.738281 258.425781 231.933594 258.390625 232.121094 258.3125 C 233.222656 257.875 234.375 257.601562 235.554688 257.492188 C 236.761719 257.382812 237.980469 257.453125 239.167969 257.699219 C 240.011719 257.871094 240.835938 257.332031 241.007812 256.492188 C 241.183594 255.648438 240.644531 254.828125 239.800781 254.652344 Z M 260.222656 256.714844 C 261.414062 256.46875 262.628906 256.398438 263.839844 256.511719 C 265.015625 256.617188 266.171875 256.894531 267.269531 257.332031 C 267.460938 257.40625 267.652344 257.441406 267.84375 257.441406 C 268.464844 257.441406 269.046875 257.070312 269.289062 256.460938 C 269.609375 255.664062 269.21875 254.757812 268.421875 254.441406 C 267.042969 253.890625 265.597656 253.546875 264.121094 253.410156 C 262.605469 253.273438 261.082031 253.359375 259.589844 253.667969 C 258.75 253.84375 258.210938 254.667969 258.382812 255.507812 C 258.558594 256.351562 259.382812 256.890625 260.222656 256.714844 Z M 236.695312 264.347656 C 235.1875 264.347656 233.960938 265.578125 233.960938 267.085938 C 233.960938 268.59375 235.1875 269.820312 236.695312 269.820312 C 238.207031 269.820312 239.433594 268.59375 239.433594 267.085938 C 239.433594 265.578125 238.207031 264.347656 236.695312 264.347656 Z M 264.398438 264.347656 C 262.886719 264.347656 261.660156 265.578125 261.660156 267.085938 C 261.660156 268.59375 262.886719 269.820312 264.398438 269.820312 C 265.90625 269.820312 267.132812 268.59375 267.132812 267.085938 C 267.132812 265.578125 265.90625 264.347656 264.398438 264.347656 Z M 248.886719 294.820312 C 248.585938 294.957031 247.5 295.367188 246.265625 294.917969 C 245.03125 294.472656 244.460938 293.464844 244.316406 293.164062 C 243.9375 292.390625 243.003906 292.074219 242.234375 292.449219 C 241.460938 292.828125 241.140625 293.757812 241.519531 294.53125 C 241.871094 295.253906 242.9375 297.023438 245.207031 297.84375 C 246 298.132812 246.753906 298.234375 247.429688 298.234375 C 248.691406 298.234375 249.683594 297.875 250.160156 297.660156 C 250.945312 297.308594 251.296875 296.386719 250.945312 295.605469 C 250.59375 294.820312 249.671875 294.46875 248.886719 294.820312 Z M 202.304688 256.980469 C 201.667969 257.3125 199.5625 258.609375 199.113281 261.230469 C 198.9375 262.253906 199.050781 263.324219 199.449219 264.328125 C 199.691406 264.9375 200.277344 265.308594 200.894531 265.308594 C 201.085938 265.308594 201.28125 265.273438 201.46875 265.199219 C 202.269531 264.882812 202.660156 263.976562 202.34375 263.179688 C 202.210938 262.851562 202.078125 262.339844 202.179688 261.757812 C 202.398438 260.480469 203.617188 259.804688 203.753906 259.734375 C 204.515625 259.332031 204.804688 258.390625 204.40625 257.632812 C 204.007812 256.871094 203.066406 256.578125 202.304688 256.980469 Z M 195.964844 333.882812 C 205.433594 339.898438 215.1875 341.464844 222.785156 341.464844 C 226.332031 341.464844 229.40625 341.125 231.761719 340.734375 C 232.609375 340.59375 233.183594 339.792969 233.042969 338.945312 C 232.902344 338.097656 232.101562 337.523438 231.253906 337.664062 C 224.28125 338.820312 210.644531 339.523438 197.632812 331.257812 C 192.238281 327.832031 187.664062 323.308594 184.035156 317.820312 C 183.5625 317.105469 182.597656 316.90625 181.878906 317.378906 C 181.164062 317.855469 180.96875 318.820312 181.441406 319.535156 C 185.3125 325.394531 190.199219 330.21875 195.964844 333.882812 Z M 364.089844 349.113281 C 364.089844 356.3125 358.230469 362.789062 351.027344 363.550781 C 350.550781 363.601562 350.074219 363.628906 349.605469 363.628906 C 346.566406 363.628906 343.746094 362.574219 341.546875 360.597656 C 339.027344 358.328125 337.636719 355.125 337.636719 351.570312 C 337.636719 344.363281 343.5 337.886719 350.703125 337.132812 C 354.28125 336.761719 357.648438 337.816406 360.1875 340.101562 C 362.703125 342.371094 364.089844 345.570312 364.089844 349.113281 Z M 360.980469 349.113281 C 360.980469 346.464844 359.957031 344.085938 358.105469 342.414062 C 356.480469 340.949219 354.378906 340.171875 352.097656 340.171875 C 351.742188 340.171875 351.386719 340.191406 351.027344 340.230469 C 345.359375 340.820312 340.75 345.910156 340.75 351.570312 C 340.75 354.230469 341.769531 356.613281 343.628906 358.285156 C 345.503906 359.972656 348.011719 360.742188 350.699219 360.457031 C 356.367188 359.855469 360.980469 354.769531 360.980469 349.113281 Z M 374.984375 198.65625 L 374.984375 374 C 374.984375 374.855469 374.289062 375.554688 373.429688 375.554688 L 302.1875 375.554688 C 302.183594 375.554688 302.175781 375.554688 302.171875 375.554688 C 302.167969 375.554688 302.167969 375.554688 302.164062 375.554688 C 302.160156 375.554688 302.152344 375.554688 302.148438 375.554688 L 286.148438 375.554688 C 286.136719 375.554688 286.128906 375.554688 286.121094 375.554688 C 286.113281 375.554688 286.101562 375.554688 286.09375 375.554688 L 180.332031 375.554688 C 180.328125 375.554688 180.324219 375.554688 180.316406 375.554688 C 180.3125 375.554688 180.304688 375.554688 180.300781 375.554688 L 154.324219 375.554688 C 153.464844 375.554688 152.769531 374.855469 152.769531 374 L 152.769531 198.65625 C 152.769531 197.796875 153.464844 197.097656 154.324219 197.097656 L 373.429688 197.097656 C 374.289062 197.097656 374.984375 197.796875 374.984375 198.65625 Z M 155.878906 200.210938 L 155.878906 298.238281 C 158.023438 295.652344 160.992188 293.089844 165.046875 291.367188 C 161.761719 282.707031 163.863281 273.191406 170.335938 268.246094 C 174.359375 265.171875 178.945312 264.707031 182.160156 264.875 C 181.824219 264.050781 181.542969 263.207031 181.320312 262.34375 C 181.265625 262.144531 181.21875 261.945312 181.171875 261.746094 C 180.570312 259.101562 180.550781 256.3125 181.109375 253.453125 C 185.867188 229.117188 205.695312 210.824219 228.257812 209.953125 C 253.453125 208.980469 268.902344 229.933594 270.746094 232.574219 C 273.574219 236.074219 274.613281 239.183594 273.835938 241.8125 C 273.652344 242.4375 273.367188 243.023438 272.996094 243.578125 C 274.714844 257.425781 273.144531 271.125 268.421875 283.242188 C 267.671875 285.164062 266.824219 287.222656 265.863281 289.289062 C 269.308594 289.195312 272.664062 289.589844 275.863281 290.492188 C 283.003906 292.503906 288.519531 296.941406 300.445312 310.277344 C 303.003906 313.140625 311.933594 323.214844 319.332031 332.652344 C 319.441406 332.789062 319.511719 332.9375 319.566406 333.089844 L 371.871094 303.957031 L 371.871094 200.210938 Z M 237.671875 309.238281 C 237.609375 309.238281 237.542969 309.238281 237.480469 309.238281 C 235.527344 309.238281 233.890625 309.078125 232.742188 308.917969 C 232.6875 308.910156 232.632812 308.898438 232.578125 308.886719 L 223.179688 306.523438 C 213.234375 304.019531 205.140625 296.984375 201.535156 287.703125 C 200.617188 285.335938 200.023438 282.921875 199.753906 280.554688 L 193.367188 293.914062 C 197.285156 298.101562 201.699219 301.707031 206.550781 304.628906 C 216.621094 310.695312 226.828125 312.945312 235.457031 313.460938 C 235.460938 313.453125 235.460938 313.445312 235.464844 313.4375 Z M 238.90625 313.578125 C 240.605469 313.59375 242.226562 313.546875 243.753906 313.457031 C 243.542969 313.183594 243.296875 312.910156 243.003906 312.65625 C 242.015625 311.796875 240.917969 311.4375 240.105469 311.292969 Z M 254.363281 300.480469 C 259.59375 296.15625 263.074219 288.390625 265.523438 282.113281 C 269.804688 271.125 271.390625 258.757812 270.15625 246.179688 C 265.34375 249.128906 256.449219 250.15625 245.3125 248.824219 C 241.695312 250.480469 238.214844 250.890625 235.667969 250.890625 C 234.820312 250.890625 234.070312 250.84375 233.457031 250.785156 C 233.28125 250.769531 233.121094 250.714844 232.96875 250.648438 C 232.410156 250.933594 231.84375 251.195312 231.265625 251.429688 C 228.96875 252.367188 227.128906 252.640625 225.507812 252.882812 C 224.042969 253.097656 222.660156 253.304688 221.003906 253.976562 C 217.035156 255.589844 213.632812 259.066406 210.890625 264.3125 C 210.519531 265.019531 209.671875 265.335938 208.929688 265.035156 C 208.1875 264.734375 207.792969 263.921875 208.019531 263.152344 C 208.839844 260.367188 208.890625 257.554688 208.167969 255.242188 C 207.511719 253.148438 206.300781 251.746094 204.753906 251.292969 C 203.210938 250.839844 201.433594 251.363281 199.75 252.769531 C 197.886719 254.324219 196.414062 256.714844 195.59375 259.5 C 194.773438 262.289062 194.722656 265.097656 195.445312 267.410156 C 196.101562 269.503906 197.3125 270.90625 198.859375 271.359375 C 199.621094 271.585938 200.441406 271.574219 201.292969 271.324219 C 201.34375 271.308594 201.398438 271.300781 201.449219 271.289062 C 201.46875 271.285156 201.484375 271.28125 201.503906 271.277344 C 201.59375 271.265625 201.683594 271.261719 201.773438 271.261719 C 201.796875 271.265625 201.820312 271.265625 201.84375 271.269531 C 201.917969 271.273438 201.992188 271.285156 202.0625 271.300781 C 202.078125 271.304688 202.09375 271.304688 202.109375 271.308594 C 202.117188 271.308594 202.125 271.3125 202.136719 271.316406 C 202.222656 271.339844 202.3125 271.371094 202.394531 271.410156 C 202.410156 271.417969 202.425781 271.429688 202.445312 271.4375 C 202.507812 271.472656 202.570312 271.507812 202.628906 271.550781 C 202.652344 271.566406 202.675781 271.585938 202.699219 271.605469 C 202.753906 271.648438 202.804688 271.691406 202.851562 271.742188 C 202.867188 271.757812 202.882812 271.773438 202.898438 271.792969 C 202.902344 271.796875 202.910156 271.800781 202.914062 271.808594 C 202.96875 271.871094 203.015625 271.9375 203.058594 272.007812 C 203.066406 272.023438 203.074219 272.039062 203.082031 272.054688 C 203.117188 272.117188 203.148438 272.183594 203.175781 272.25 C 203.1875 272.277344 203.195312 272.304688 203.203125 272.332031 C 203.226562 272.394531 203.242188 272.460938 203.253906 272.527344 C 203.257812 272.550781 203.265625 272.574219 203.269531 272.597656 C 203.28125 272.683594 203.285156 272.773438 203.285156 272.863281 C 203.28125 272.886719 203.28125 272.910156 203.277344 272.933594 C 203.273438 273.003906 203.261719 273.078125 203.246094 273.148438 C 203.242188 273.164062 203.242188 273.179688 203.238281 273.195312 C 202.226562 277.226562 202.648438 281.980469 204.433594 286.578125 C 207.675781 294.921875 214.96875 301.25 223.9375 303.503906 L 233.257812 305.847656 C 237.089844 306.371094 246.636719 306.859375 254.363281 300.480469 Z M 155.878906 372.441406 L 178.761719 372.441406 L 178.761719 342.4375 C 178.761719 341.578125 179.457031 340.882812 180.316406 340.882812 C 181.175781 340.882812 181.871094 341.578125 181.871094 342.4375 L 181.871094 372.441406 L 283.878906 372.441406 L 267.457031 328.425781 C 267.160156 327.621094 267.566406 326.726562 268.371094 326.425781 C 269.175781 326.125 270.074219 326.535156 270.375 327.339844 L 287.199219 372.441406 L 300.621094 372.441406 L 300.71875 350.574219 C 300.734375 346.523438 302.769531 342.78125 306.160156 340.5625 C 306.191406 340.542969 306.222656 340.523438 306.253906 340.507812 L 316.894531 334.582031 C 316.890625 334.578125 316.886719 334.574219 316.886719 334.570312 C 309.542969 325.207031 300.667969 315.199219 298.125 312.351562 C 285.488281 298.222656 280.78125 295.113281 275.019531 293.488281 C 271.609375 292.527344 268 292.195312 264.277344 292.488281 C 262.171875 296.441406 259.585938 300.199219 256.34375 302.878906 C 251.933594 306.523438 247.023438 308.171875 242.707031 308.839844 C 243.476562 309.171875 244.28125 309.640625 245.046875 310.3125 C 246.597656 311.664062 247.347656 313.253906 247.699219 314.351562 C 247.714844 314.390625 247.71875 314.429688 247.726562 314.472656 C 247.738281 314.511719 247.746094 314.550781 247.753906 314.59375 C 247.765625 314.683594 247.773438 314.773438 247.769531 314.863281 C 247.769531 314.886719 247.773438 314.914062 247.769531 314.941406 C 247.761719 315.058594 247.742188 315.171875 247.707031 315.285156 C 247.703125 315.289062 247.703125 315.296875 247.703125 315.304688 L 240.695312 337.222656 C 240.484375 337.882812 239.875 338.304688 239.214844 338.304688 C 239.058594 338.304688 238.898438 338.28125 238.742188 338.230469 C 237.921875 337.96875 237.472656 337.09375 237.730469 336.277344 L 244.035156 316.558594 C 233.699219 317.1875 219.203125 315.886719 204.945312 307.292969 C 199.570312 304.054688 194.703125 300.03125 190.429688 295.320312 C 190.378906 295.273438 190.332031 295.222656 190.289062 295.167969 C 190.144531 295.007812 189.996094 294.855469 189.855469 294.695312 L 181.367188 311.515625 C 180.980469 312.28125 180.046875 312.589844 179.28125 312.203125 C 178.511719 311.816406 178.203125 310.878906 178.589844 310.113281 L 185.859375 295.699219 C 183.269531 294.195312 176.027344 290.789062 167.605469 293.710938 C 161.40625 295.863281 157.828125 300.261719 155.878906 303.707031 Z M 371.871094 372.441406 L 371.871094 307.519531 L 307.820312 343.195312 C 305.332031 344.84375 303.839844 347.601562 303.828125 350.585938 L 303.734375 372.441406 Z M 371.871094 372.441406 " fill-opacity="1" fill-rule="nonzero"/></g><g clip-path="url(#36f62c07d9)"><path fill="#f6f4e7" d="M 0.378906 197.386719 L 177.800781 197.386719 L 177.800781 374.808594 L 0.378906 374.808594 Z M 0.378906 197.386719 " fill-opacity="1" fill-rule="nonzero"/></g><path fill="#69e344" d="M 62.613281 289.097656 L 69.917969 286.117188 L 69.917969 293.777344 L 59.230469 295.65625 L 23.121094 300.480469 L 17.433594 302.164062 L 12.980469 304.664062 L 6.988281 310.238281 L 1.890625 317.894531 L 1.253906 306.558594 L 2.101562 198.28125 L 40.277344 198.863281 L 39.140625 203.183594 L 39.398438 208.601562 L 37.117188 210.914062 C 37.117188 210.914062 30.910156 213.96875 30.558594 214.292969 C 30.207031 214.617188 26.207031 219.40625 25.945312 222.582031 C 25.683594 225.761719 25.984375 228.738281 25.984375 228.738281 L 24.710938 231.628906 L 21.191406 235.046875 C 21.191406 235.046875 18.730469 238.410156 18.601562 241.914062 C 18.46875 245.414062 21.039062 250.285156 21.039062 250.285156 C 21.039062 250.285156 24.167969 252.5 24.269531 254.257812 C 24.375 256.019531 22.695312 258.832031 22.695312 258.832031 C 22.695312 258.832031 20.738281 261.683594 20.871094 264.40625 C 21.003906 267.128906 21.191406 268.960938 21.191406 268.960938 L 23 271.90625 L 26.519531 275.667969 L 30.894531 277.398438 L 31.882812 279.929688 L 31.683594 283.785156 L 34.644531 287.273438 L 40.277344 288.296875 L 44.628906 287.273438 L 49.125 288.902344 L 55.363281 290.222656 Z M 141.648438 198.863281 L 142.785156 203.183594 L 142.527344 208.601562 L 144.808594 210.914062 C 144.808594 210.914062 151.015625 213.96875 151.367188 214.292969 C 151.71875 214.617188 155.71875 219.40625 155.980469 222.582031 C 156.242188 225.761719 155.941406 228.738281 155.941406 228.738281 L 157.214844 231.628906 L 160.734375 235.046875 C 160.734375 235.046875 163.195312 238.410156 163.324219 241.914062 C 163.457031 245.414062 160.886719 250.285156 160.886719 250.285156 C 160.886719 250.285156 157.757812 252.5 157.65625 254.257812 C 157.554688 256.019531 159.230469 258.832031 159.230469 258.832031 C 159.230469 258.832031 161.1875 261.683594 161.054688 264.40625 C 160.925781 267.128906 160.734375 268.960938 160.734375 268.960938 L 158.925781 271.90625 L 155.40625 275.667969 L 151.03125 277.398438 L 150.042969 279.929688 L 150.242188 283.785156 L 147.28125 287.273438 L 141.648438 288.296875 L 137.296875 287.273438 L 132.800781 288.902344 L 126.5625 290.222656 L 119.316406 289.097656 L 112.007812 286.117188 L 112.007812 293.777344 L 122.695312 295.65625 L 158.804688 300.480469 L 164.492188 302.164062 L 168.945312 304.664062 L 174.9375 310.238281 L 176.921875 315.46875 L 176.921875 198.28125 Z M 141.648438 198.863281 " fill-opacity="1" fill-rule="nonzero"/><g clip-path="url(#1f525aff91)"><path fill="#000000" d="M 54.992188 245.78125 C 55.496094 246.253906 55.519531 247.042969 55.050781 247.542969 C 54.804688 247.804688 54.472656 247.9375 54.140625 247.9375 C 53.835938 247.9375 53.527344 247.828125 53.289062 247.601562 C 52.382812 246.753906 51.199219 245.289062 50.710938 243.144531 C 49.988281 239.972656 51.285156 237.421875 51.875 236.472656 C 52.238281 235.890625 53.007812 235.710938 53.59375 236.074219 C 54.175781 236.4375 54.355469 237.207031 53.992188 237.792969 C 53.5625 238.480469 52.625 240.320312 53.144531 242.589844 C 53.492188 244.121094 54.339844 245.171875 54.992188 245.78125 Z M 121.015625 247.9375 C 121.320312 247.9375 121.628906 247.828125 121.867188 247.601562 C 122.773438 246.753906 123.957031 245.292969 124.445312 243.144531 C 125.167969 239.972656 123.871094 237.421875 123.28125 236.472656 C 122.917969 235.890625 122.148438 235.710938 121.5625 236.074219 C 120.980469 236.4375 120.800781 237.207031 121.164062 237.792969 C 121.589844 238.480469 122.53125 240.320312 122.011719 242.589844 C 121.644531 244.203125 120.695312 245.28125 120.164062 245.78125 C 119.660156 246.253906 119.632812 247.042969 120.105469 247.542969 C 120.351562 247.804688 120.683594 247.9375 121.015625 247.9375 Z M 87.539062 255.382812 C 87.585938 255.382812 87.628906 255.382812 87.671875 255.382812 C 87.816406 255.378906 87.960938 255.371094 88.101562 255.355469 C 89.660156 255.207031 91.085938 254.378906 92.019531 253.089844 C 92.996094 251.738281 93.347656 250.035156 92.980469 248.410156 L 88.324219 227.769531 C 88.171875 227.097656 87.507812 226.675781 86.832031 226.824219 C 86.160156 226.976562 85.738281 227.644531 85.890625 228.316406 L 90.546875 248.957031 C 90.753906 249.886719 90.554688 250.859375 90 251.628906 C 89.476562 252.347656 88.71875 252.792969 87.859375 252.875 C 87.78125 252.882812 87.699219 252.886719 87.617188 252.890625 C 85.835938 252.917969 84.253906 251.578125 83.90625 249.746094 C 83.777344 249.066406 83.125 248.625 82.449219 248.75 C 81.773438 248.878906 81.328125 249.53125 81.457031 250.210938 C 82.019531 253.183594 84.621094 255.382812 87.539062 255.382812 Z M 77.261719 258.519531 C 77.683594 257.976562 77.582031 257.191406 77.035156 256.769531 C 76.488281 256.351562 75.707031 256.453125 75.285156 257 C 74.101562 258.539062 73.074219 260.203125 72.234375 261.949219 C 70.683594 265.164062 69.761719 268.632812 69.496094 272.257812 C 69.445312 272.945312 69.960938 273.542969 70.648438 273.59375 C 70.679688 273.59375 70.710938 273.597656 70.742188 273.597656 C 71.390625 273.597656 71.9375 273.097656 71.984375 272.441406 C 72.226562 269.128906 73.066406 265.960938 74.480469 263.03125 C 75.246094 261.441406 76.179688 259.925781 77.261719 258.519531 Z M 99.269531 257 C 98.851562 256.453125 98.066406 256.351562 97.519531 256.769531 C 96.976562 257.191406 96.875 257.976562 97.292969 258.519531 C 98.375 259.925781 99.3125 261.441406 100.074219 263.03125 C 101.488281 265.960938 102.328125 269.128906 102.570312 272.441406 C 102.621094 273.097656 103.167969 273.597656 103.8125 273.597656 C 103.84375 273.597656 103.875 273.59375 103.90625 273.59375 C 104.59375 273.542969 105.109375 272.945312 105.058594 272.257812 C 104.792969 268.632812 103.871094 265.164062 102.324219 261.945312 C 101.484375 260.203125 100.457031 258.539062 99.269531 257 Z M 92.390625 265.027344 C 91.601562 265.484375 90.3125 266.03125 88.671875 266.070312 C 86.871094 266.109375 85.460938 265.527344 84.59375 265.027344 C 83.996094 264.683594 83.234375 264.890625 82.890625 265.488281 C 82.546875 266.085938 82.753906 266.847656 83.351562 267.191406 C 84.457031 267.824219 86.230469 268.566406 88.492188 268.566406 C 88.570312 268.566406 88.648438 268.566406 88.730469 268.5625 C 90.898438 268.515625 92.59375 267.789062 93.632812 267.191406 C 94.230469 266.847656 94.4375 266.085938 94.09375 265.488281 C 93.75 264.890625 92.988281 264.683594 92.390625 265.027344 Z M 70.261719 239.769531 C 68.910156 239.769531 67.8125 238.667969 67.8125 237.320312 C 67.8125 235.96875 68.910156 234.867188 70.261719 234.867188 C 71.613281 234.867188 72.710938 235.96875 72.710938 237.320312 C 72.710938 238.667969 71.613281 239.769531 70.261719 239.769531 Z M 70.304688 237.320312 C 70.304688 237.292969 70.285156 237.273438 70.261719 237.273438 C 70.238281 237.273438 70.21875 237.292969 70.21875 237.320312 C 70.21875 237.367188 70.304688 237.367188 70.304688 237.320312 Z M 106.746094 237.320312 C 106.746094 238.667969 105.644531 239.769531 104.292969 239.769531 C 102.941406 239.769531 101.84375 238.667969 101.84375 237.320312 C 101.84375 235.96875 102.941406 234.867188 104.292969 234.867188 C 105.644531 234.867188 106.746094 235.96875 106.746094 237.320312 Z M 104.335938 237.320312 C 104.335938 237.292969 104.316406 237.273438 104.292969 237.273438 C 104.269531 237.273438 104.25 237.292969 104.25 237.320312 C 104.25 237.367188 104.335938 237.367188 104.335938 237.320312 Z M 77.710938 226.566406 C 77.710938 225.878906 77.152344 225.320312 76.464844 225.320312 L 66.402344 225.320312 C 65.714844 225.320312 65.15625 225.878906 65.15625 226.566406 C 65.15625 227.253906 65.714844 227.8125 66.402344 227.8125 L 76.464844 227.8125 C 77.152344 227.8125 77.710938 227.253906 77.710938 226.566406 Z M 98.09375 227.8125 L 108.152344 227.8125 C 108.84375 227.8125 109.402344 227.253906 109.402344 226.566406 C 109.402344 225.878906 108.84375 225.320312 108.152344 225.320312 L 98.09375 225.320312 C 97.402344 225.320312 96.84375 225.878906 96.84375 226.566406 C 96.84375 227.253906 97.402344 227.8125 98.09375 227.8125 Z M 178.171875 198.28125 L 178.171875 373.949219 C 178.171875 374.636719 177.613281 375.195312 176.921875 375.195312 L 1.253906 375.195312 C 0.566406 375.195312 0.0078125 374.636719 0.0078125 373.949219 L 0.0078125 198.28125 C 0.0078125 197.589844 0.566406 197.03125 1.253906 197.03125 L 176.921875 197.03125 C 177.613281 197.03125 178.171875 197.589844 178.171875 198.28125 Z M 175.675781 199.527344 L 142.507812 199.527344 C 143.59375 201.8125 143.804688 204.511719 143.101562 207.125 C 142.949219 207.691406 143.027344 208.277344 143.320312 208.773438 C 143.605469 209.257812 144.058594 209.59375 144.597656 209.722656 C 147.8125 210.503906 150.628906 212.140625 152.742188 214.457031 C 156.125 218.160156 157.585938 223.433594 156.648438 228.5625 C 156.496094 229.402344 156.816406 230.234375 157.464844 230.683594 C 162.039062 233.847656 164.515625 239.105469 163.925781 244.410156 C 163.433594 248.863281 160.90625 251.917969 158.875 253.691406 C 158.007812 254.453125 157.886719 255.769531 158.605469 256.628906 C 161.25 259.785156 162.328125 263.992188 161.492188 267.882812 C 160.492188 272.519531 156.953125 276.289062 152.246094 277.722656 C 151.21875 278.035156 150.5625 279.078125 150.75 280.09375 C 151.261719 282.890625 150.296875 285.789062 148.230469 287.660156 C 145.527344 290.109375 141.453125 290.441406 138.324219 288.46875 C 137.636719 288.035156 136.824219 287.988281 136.152344 288.347656 C 133.527344 289.738281 130.726562 290.628906 127.828125 290.992188 C 126.804688 291.121094 125.8125 291.179688 124.851562 291.179688 C 119.226562 291.179688 114.742188 289.1875 112.09375 287.628906 L 112.09375 292.386719 C 118.0625 293.847656 124.171875 295.097656 130.269531 296.105469 C 139.058594 297.554688 144.894531 298.027344 149.582031 298.410156 C 155.019531 298.851562 158.613281 299.144531 162.589844 300.738281 C 167.53125 302.71875 171.917969 306.292969 175.675781 311.375 Z M 52.496094 298.199219 L 70.238281 319.238281 L 88.050781 299.078125 C 81.492188 298.847656 74.925781 297.535156 68.910156 295.226562 C 68.714844 295.152344 68.550781 295.03125 68.417969 294.878906 C 63.179688 296.152344 57.839844 297.269531 52.496094 298.199219 Z M 109.597656 293.199219 L 109.597656 282.160156 C 107.589844 283.179688 105.320312 283.757812 102.917969 283.757812 L 72.6875 283.757812 C 71.980469 283.757812 71.285156 283.703125 70.605469 283.609375 L 70.605469 293.199219 C 76.917969 295.503906 83.820312 296.691406 90.644531 296.621094 C 97.1875 296.558594 103.558594 295.410156 109.597656 293.199219 Z M 72.6875 281.261719 L 102.917969 281.261719 C 105.574219 281.261719 108.035156 280.414062 110.050781 278.976562 C 110.101562 278.933594 110.15625 278.894531 110.214844 278.859375 C 113.253906 276.617188 115.230469 273.011719 115.230469 268.949219 L 115.230469 253.128906 C 115.230469 252.441406 115.789062 251.882812 116.476562 251.882812 C 117.167969 251.882812 117.726562 252.441406 117.726562 253.128906 L 117.726562 253.25 C 118.300781 254.039062 119.1875 254.902344 120.414062 255.132812 C 124.097656 255.824219 128.300781 250.515625 129.609375 243.542969 C 130.277344 239.992188 130.125 236.523438 129.179688 233.777344 C 128.320312 231.277344 126.921875 229.726562 125.242188 229.410156 C 123.015625 228.992188 120.417969 230.84375 118.460938 234.246094 C 118.457031 234.257812 118.445312 234.265625 118.441406 234.277344 C 118.414062 234.316406 118.386719 234.351562 118.359375 234.390625 C 118.335938 234.417969 118.3125 234.449219 118.285156 234.476562 C 118.261719 234.507812 118.230469 234.53125 118.199219 234.558594 C 118.167969 234.589844 118.132812 234.617188 118.097656 234.640625 C 118.085938 234.648438 118.078125 234.660156 118.066406 234.667969 C 118.042969 234.683594 118.019531 234.691406 118 234.703125 C 117.960938 234.722656 117.925781 234.742188 117.886719 234.761719 C 117.847656 234.777344 117.808594 234.792969 117.769531 234.804688 C 117.730469 234.816406 117.695312 234.828125 117.660156 234.835938 C 117.617188 234.847656 117.574219 234.851562 117.53125 234.859375 C 117.496094 234.863281 117.457031 234.867188 117.421875 234.867188 C 117.378906 234.867188 117.339844 234.867188 117.296875 234.863281 C 117.257812 234.863281 117.21875 234.859375 117.179688 234.851562 C 117.136719 234.84375 117.097656 234.835938 117.058594 234.824219 C 117.023438 234.8125 116.984375 234.804688 116.945312 234.789062 C 116.90625 234.773438 116.867188 234.753906 116.824219 234.734375 C 116.804688 234.722656 116.78125 234.71875 116.761719 234.707031 C 116.75 234.699219 116.738281 234.691406 116.726562 234.683594 C 116.6875 234.660156 116.652344 234.632812 116.617188 234.605469 C 116.585938 234.578125 116.554688 234.554688 116.527344 234.527344 C 116.5 234.503906 116.476562 234.472656 116.449219 234.445312 C 116.417969 234.410156 116.390625 234.375 116.363281 234.339844 C 116.355469 234.328125 116.34375 234.320312 116.339844 234.308594 L 102.8125 213.648438 C 102.445312 213.09375 101.859375 212.738281 101.199219 212.671875 C 100.523438 212.605469 99.859375 212.851562 99.378906 213.34375 C 95.730469 217.074219 90.851562 219.128906 85.640625 219.128906 C 80.625 219.128906 75.882812 217.207031 72.28125 213.722656 C 71.769531 213.226562 71.074219 213.011719 70.375 213.132812 C 69.675781 213.25 69.097656 213.683594 68.78125 214.316406 L 58.890625 234.179688 C 58.6875 234.59375 58.269531 234.859375 57.8125 234.871094 C 57.347656 234.886719 56.921875 234.644531 56.691406 234.246094 C 54.738281 230.84375 52.144531 228.992188 49.914062 229.410156 C 48.234375 229.726562 46.835938 231.277344 45.976562 233.777344 C 45.03125 236.523438 44.878906 239.992188 45.546875 243.542969 C 46.855469 250.515625 51.066406 255.824219 54.742188 255.132812 C 56.125 254.875 57.078125 253.808594 57.636719 252.957031 C 58.011719 252.382812 58.785156 252.21875 59.363281 252.597656 C 59.441406 252.648438 59.507812 252.707031 59.570312 252.773438 C 60.039062 252.953125 60.375 253.402344 60.375 253.933594 L 60.375 268.949219 C 60.375 275.738281 65.898438 281.261719 72.6875 281.261719 Z M 91.601562 299.097656 L 109.394531 319.238281 L 127.210938 298.113281 C 122.03125 297.199219 116.859375 296.113281 111.785156 294.878906 C 111.652344 295.03125 111.488281 295.152344 111.292969 295.226562 C 105.023438 297.632812 98.402344 298.929688 91.601562 299.097656 Z M 2.5 199.527344 L 2.5 314.371094 C 6.6875 307.664062 11.753906 303.082031 17.609375 300.738281 C 21.589844 299.144531 25.179688 298.851562 30.617188 298.410156 C 35.308594 298.027344 41.144531 297.554688 49.933594 296.105469 C 56.03125 295.097656 62.140625 293.847656 68.109375 292.386719 L 68.109375 288.269531 C 65.398438 289.683594 61.382812 291.179688 56.515625 291.179688 C 55.554688 291.179688 54.5625 291.121094 53.539062 290.992188 C 50.648438 290.628906 47.859375 289.746094 45.246094 288.363281 C 44.554688 288 43.71875 288.046875 43.003906 288.488281 C 39.882812 290.4375 35.824219 290.09375 33.136719 287.660156 C 31.078125 285.800781 30.113281 282.914062 30.609375 280.128906 C 30.796875 279.09375 30.125 278.03125 29.085938 277.710938 C 24.398438 276.273438 20.867188 272.503906 19.875 267.882812 C 19.042969 264.019531 20.105469 259.835938 22.710938 256.6875 C 23.449219 255.796875 23.324219 254.429688 22.433594 253.644531 C 20.425781 251.871094 17.929688 248.832031 17.4375 244.410156 C 16.855469 239.140625 19.304688 233.898438 23.828125 230.730469 C 24.515625 230.25 24.859375 229.367188 24.703125 228.480469 C 23.792969 223.378906 25.261719 218.136719 28.621094 214.457031 C 30.738281 212.140625 33.433594 210.558594 36.636719 209.753906 C 37.207031 209.613281 37.6875 209.257812 37.984375 208.75 C 38.300781 208.222656 38.386719 207.597656 38.230469 206.992188 C 37.566406 204.421875 37.789062 201.773438 38.855469 199.527344 Z M 35.011719 330.996094 C 35.011719 330.113281 33.832031 329.335938 32.488281 329.335938 L 25.277344 329.335938 C 24.554688 329.335938 23.859375 329.554688 23.371094 329.929688 C 23.292969 329.988281 23.226562 330.050781 23.167969 330.109375 C 23.117188 330.183594 23.0625 330.25 23 330.308594 C 22.777344 330.621094 22.75 330.898438 22.75 330.996094 C 22.75 331.039062 22.75 331.085938 22.742188 331.132812 C 22.375 334.507812 22.15625 337.933594 22.101562 341.316406 C 22.019531 345.96875 22.238281 350.679688 22.742188 355.316406 C 22.75 355.363281 22.75 355.40625 22.75 355.453125 C 22.75 357.429688 25.089844 359.101562 27.863281 359.101562 L 29.902344 359.101562 C 32.671875 359.101562 35.011719 357.429688 35.011719 355.453125 Z M 52.261719 354.453125 L 52.261719 355.453125 C 52.261719 357.429688 54.605469 359.101562 57.375 359.101562 L 59.414062 359.101562 C 62.183594 359.101562 64.523438 357.429688 64.523438 355.453125 C 64.523438 355.40625 64.527344 355.363281 64.53125 355.316406 C 64.964844 351.34375 65.1875 347.316406 65.191406 343.320312 C 65.183594 343.253906 65.1875 343.1875 65.191406 343.125 C 65.191406 342.519531 65.1875 341.917969 65.175781 341.316406 C 65.117188 337.929688 64.902344 334.503906 64.53125 331.132812 C 64.527344 331.085938 64.523438 331.039062 64.523438 330.996094 C 64.523438 330.855469 64.480469 330.371094 63.90625 329.929688 C 63.417969 329.554688 62.722656 329.335938 62 329.335938 L 54.789062 329.335938 C 53.441406 329.335938 52.261719 330.113281 52.261719 330.996094 Z M 70.558594 344.558594 C 74.382812 347.195312 80.265625 346.949219 83.671875 344.011719 L 84.226562 343.535156 C 84.453125 343.339844 84.71875 343.019531 84.695312 342.605469 C 84.675781 342.253906 84.449219 341.90625 84.050781 341.628906 L 67.480469 330.222656 C 67.273438 330.082031 67.050781 329.960938 66.816406 329.851562 C 66.972656 330.308594 67.011719 330.695312 67.019531 330.917969 C 67.390625 334.347656 67.609375 337.832031 67.667969 341.273438 C 67.675781 341.707031 67.679688 342.144531 67.683594 342.578125 Z M 109.742188 371.960938 L 106.871094 361.597656 L 71.132812 361.597656 L 68.21875 371.960938 Z M 110.140625 342.578125 C 110.140625 342.144531 110.144531 341.707031 110.152344 341.273438 C 110.210938 337.835938 110.429688 334.351562 110.804688 330.917969 C 110.808594 330.695312 110.847656 330.308594 111.003906 329.851562 C 110.769531 329.960938 110.546875 330.082031 110.339844 330.222656 L 93.769531 341.632812 C 93.371094 341.90625 93.144531 342.253906 93.125 342.605469 C 93.101562 343.019531 93.367188 343.339844 93.59375 343.535156 L 94.148438 344.011719 C 97.554688 346.949219 103.4375 347.195312 107.261719 344.558594 Z M 112.628906 343.316406 C 112.636719 347.3125 112.855469 351.339844 113.289062 355.316406 C 113.292969 355.363281 113.296875 355.40625 113.296875 355.453125 C 113.296875 357.429688 115.636719 359.101562 118.40625 359.101562 L 120.445312 359.101562 C 123.21875 359.101562 125.558594 357.429688 125.558594 355.453125 L 125.558594 330.996094 C 125.558594 330.113281 124.378906 329.335938 123.03125 329.335938 L 115.820312 329.335938 C 115.097656 329.335938 114.402344 329.554688 113.914062 329.929688 C 113.339844 330.371094 113.296875 330.855469 113.296875 330.996094 C 113.296875 331.039062 113.292969 331.085938 113.289062 331.132812 C 112.917969 334.507812 112.703125 337.933594 112.644531 341.316406 C 112.632812 341.917969 112.628906 342.523438 112.628906 343.125 C 112.632812 343.191406 112.636719 343.253906 112.628906 343.316406 Z M 142.808594 354.453125 L 142.808594 355.453125 C 142.808594 357.429688 145.148438 359.101562 147.917969 359.101562 L 149.957031 359.101562 C 152.730469 359.101562 155.070312 357.429688 155.070312 355.453125 C 155.070312 355.40625 155.070312 355.363281 155.078125 355.316406 C 155.585938 350.679688 155.800781 345.96875 155.722656 341.316406 C 155.664062 337.933594 155.445312 334.507812 155.078125 331.132812 C 155.070312 331.085938 155.070312 331.039062 155.070312 330.996094 C 155.070312 330.898438 155.042969 330.621094 154.824219 330.3125 C 154.757812 330.25 154.703125 330.183594 154.652344 330.109375 C 154.59375 330.046875 154.527344 329.988281 154.449219 329.929688 C 153.960938 329.554688 153.265625 329.335938 152.542969 329.335938 L 145.332031 329.335938 C 143.988281 329.335938 142.808594 330.113281 142.808594 330.996094 Z M 130.933594 363.171875 L 127.835938 371.960938 L 140.21875 371.960938 L 137.121094 363.171875 Z M 153.636719 360.828125 C 153.90625 360.96875 154.121094 361.210938 154.226562 361.511719 L 156.597656 368.234375 L 158.96875 361.511719 C 158.976562 361.484375 158.988281 361.460938 159 361.433594 C 157.800781 361.226562 156.667969 360.824219 155.710938 360.238281 C 155.535156 360.132812 155.398438 359.988281 155.300781 359.824219 C 154.808594 360.214844 154.246094 360.550781 153.636719 360.828125 Z M 145.980469 363.171875 L 142.882812 371.960938 L 155.265625 371.960938 L 152.167969 363.171875 Z M 170.3125 371.960938 L 167.214844 363.171875 L 161.027344 363.171875 L 157.929688 371.960938 Z M 163.058594 359.101562 C 164.125 359.101562 167.679688 358.867188 168.589844 355.855469 C 168.867188 354.933594 168.929688 353.925781 168.996094 352.863281 L 169.019531 352.492188 C 169.210938 349.378906 169.414062 346.164062 169.410156 343.015625 L 169.410156 342.453125 C 169.410156 339.574219 169.410156 336.597656 168.457031 334.074219 C 168.027344 332.945312 167.429688 331.945312 166.679688 331.109375 C 165.925781 330.273438 165.484375 330.105469 164.199219 330.101562 L 159.0625 330.125 C 158.484375 330.125 157.953125 330.125 157.460938 330.183594 C 157.535156 330.492188 157.558594 330.75 157.5625 330.917969 C 157.9375 334.347656 158.15625 337.832031 158.214844 341.273438 C 158.296875 346.007812 158.078125 350.804688 157.5625 355.523438 C 157.550781 356.421875 157.292969 357.269531 156.851562 358.035156 C 156.90625 358.058594 156.957031 358.078125 157.007812 358.109375 C 158.0625 358.75 159.429688 359.101562 160.859375 359.101562 Z M 141.433594 358.648438 C 140.734375 359.609375 139.800781 360.386719 138.71875 360.902344 C 138.925781 361.046875 139.09375 361.257812 139.179688 361.511719 L 141.550781 368.234375 L 143.921875 361.511719 C 144.011719 361.253906 144.183594 361.039062 144.398438 360.894531 C 143.175781 360.375 142.152344 359.59375 141.433594 358.648438 Z M 140.3125 331.589844 C 140.3125 330.347656 139.304688 329.335938 138.0625 329.335938 L 130.304688 329.335938 C 129.0625 329.335938 128.050781 330.347656 128.050781 331.589844 L 128.050781 354.453125 C 128.050781 357.015625 130.136719 359.101562 132.703125 359.101562 L 135.664062 359.101562 C 138.226562 359.101562 140.3125 357.015625 140.3125 354.453125 Z M 126.929688 358.648438 C 126.171875 359.648438 125.074219 360.457031 123.761719 360.976562 C 123.925781 361.113281 124.058594 361.296875 124.132812 361.511719 L 126.503906 368.234375 L 128.875 361.511719 C 128.980469 361.203125 129.199219 360.960938 129.476562 360.820312 C 128.464844 360.304688 127.59375 359.558594 126.929688 358.648438 Z M 115.886719 363.171875 L 112.789062 371.960938 L 125.171875 371.960938 L 122.074219 363.171875 Z M 18.820312 361.433594 C 18.832031 361.460938 18.84375 361.484375 18.851562 361.511719 L 21.222656 368.234375 L 23.59375 361.511719 C 23.699219 361.210938 23.914062 360.96875 24.183594 360.828125 C 23.574219 360.550781 23.011719 360.214844 22.519531 359.824219 C 22.421875 359.988281 22.285156 360.132812 22.109375 360.238281 C 21.152344 360.824219 20.023438 361.226562 18.820312 361.433594 Z M 25.652344 363.171875 L 22.554688 371.960938 L 34.9375 371.960938 L 31.839844 363.171875 Z M 40.699219 363.171875 L 37.601562 371.960938 L 49.984375 371.960938 L 46.886719 363.171875 Z M 65.03125 371.960938 L 61.933594 363.171875 L 55.746094 363.171875 L 52.648438 371.960938 Z M 50.890625 358.648438 C 50.226562 359.558594 49.355469 360.304688 48.34375 360.820312 C 48.621094 360.960938 48.839844 361.203125 48.945312 361.511719 L 51.316406 368.234375 L 53.6875 361.511719 C 53.761719 361.296875 53.894531 361.113281 54.058594 360.976562 C 52.746094 360.457031 51.648438 359.648438 50.890625 358.648438 Z M 49.769531 331.589844 C 49.769531 330.347656 48.757812 329.335938 47.515625 329.335938 L 39.757812 329.335938 C 38.515625 329.335938 37.507812 330.347656 37.507812 331.589844 L 37.507812 354.453125 C 37.507812 357.015625 39.59375 359.101562 42.15625 359.101562 L 45.117188 359.101562 C 47.683594 359.101562 49.769531 357.015625 49.769531 354.453125 Z M 36.386719 358.648438 C 35.667969 359.59375 34.644531 360.375 33.421875 360.894531 C 33.636719 361.039062 33.808594 361.253906 33.898438 361.511719 L 36.269531 368.234375 L 38.640625 361.511719 C 38.730469 361.257812 38.894531 361.046875 39.101562 360.902344 C 38.019531 360.386719 37.085938 359.609375 36.386719 358.648438 Z M 19.605469 341.273438 C 19.664062 337.832031 19.882812 334.347656 20.257812 330.917969 C 20.261719 330.75 20.285156 330.492188 20.363281 330.183594 C 19.867188 330.125 19.335938 330.125 18.757812 330.125 L 18.304688 330.125 L 13.621094 330.101562 C 12.328125 330.105469 11.894531 330.273438 11.140625 331.109375 C 10.390625 331.945312 9.792969 332.945312 9.363281 334.074219 C 8.410156 336.597656 8.410156 339.574219 8.410156 342.449219 L 8.410156 343.015625 C 8.410156 346.167969 8.609375 349.390625 8.804688 352.503906 L 8.824219 352.863281 C 8.890625 353.929688 8.953125 354.933594 9.230469 355.855469 C 10.140625 358.867188 13.695312 359.101562 14.761719 359.101562 L 16.960938 359.101562 C 18.390625 359.101562 19.757812 358.75 20.8125 358.109375 C 20.863281 358.078125 20.917969 358.058594 20.96875 358.035156 C 20.527344 357.269531 20.269531 356.421875 20.257812 355.523438 C 19.742188 350.800781 19.523438 346.007812 19.605469 341.273438 Z M 10.605469 363.171875 L 7.507812 371.960938 L 19.890625 371.960938 L 16.792969 363.171875 Z M 175.675781 372.699219 L 175.675781 315.828125 C 171.773438 309.515625 167.0625 305.214844 161.664062 303.054688 C 158.03125 301.597656 154.777344 301.332031 149.382812 300.894531 C 144.929688 300.535156 138.84375 300.039062 130.0625 298.597656 L 110.367188 321.953125 C 110.136719 322.226562 109.792969 322.390625 109.429688 322.394531 C 109.425781 322.394531 109.421875 322.394531 109.414062 322.394531 C 109.058594 322.394531 108.71875 322.242188 108.480469 321.972656 L 89.816406 300.84375 L 71.152344 321.972656 C 70.914062 322.242188 70.574219 322.394531 70.21875 322.394531 C 70.210938 322.394531 70.207031 322.394531 70.203125 322.394531 C 69.839844 322.390625 69.496094 322.226562 69.261719 321.953125 L 49.636719 298.679688 C 41.125 300.054688 35.183594 300.539062 30.820312 300.894531 C 25.425781 301.332031 22.167969 301.597656 18.539062 303.054688 C 12.179688 305.601562 6.785156 311.109375 2.5 319.417969 L 2.5 372.699219 L 4.601562 372.699219 L 8.546875 361.511719 C 8.722656 361.011719 9.195312 360.679688 9.722656 360.679688 L 10.460938 360.679688 C 8.6875 359.820312 7.398438 358.40625 6.84375 356.578125 C 6.480469 355.378906 6.40625 354.179688 6.335938 353.019531 L 6.3125 352.660156 C 6.117188 349.507812 5.914062 346.246094 5.917969 343.011719 L 5.917969 342.449219 C 5.917969 339.492188 5.914062 336.144531 7.03125 333.191406 C 7.570312 331.769531 8.328125 330.507812 9.289062 329.441406 C 10.515625 328.074219 11.601562 327.605469 13.570312 327.605469 C 13.589844 327.605469 13.613281 327.605469 13.632812 327.605469 L 18.753906 327.632812 C 19.714844 327.628906 20.78125 327.628906 21.839844 327.960938 C 21.84375 327.957031 21.84375 327.957031 21.847656 327.953125 C 22.777344 327.238281 23.996094 326.84375 25.277344 326.84375 L 32.488281 326.84375 C 34.023438 326.84375 35.402344 327.417969 36.324219 328.324219 C 37.1875 327.414062 38.40625 326.84375 39.757812 326.84375 L 47.515625 326.84375 C 48.867188 326.84375 50.085938 327.414062 50.953125 328.324219 C 51.875 327.417969 53.25 326.84375 54.789062 326.84375 L 62 326.84375 C 62.382812 326.84375 62.761719 326.882812 63.128906 326.953125 C 65.175781 326.632812 67.3125 327.078125 68.898438 328.167969 L 85.464844 339.578125 C 86.5 340.292969 87.128906 341.347656 87.1875 342.472656 C 87.246094 343.570312 86.757812 344.644531 85.851562 345.425781 L 85.300781 345.902344 C 83.035156 347.851562 79.894531 348.847656 76.746094 348.847656 C 74.035156 348.847656 71.316406 348.109375 69.144531 346.613281 L 67.65625 345.589844 C 67.589844 348.90625 67.375 352.234375 67.019531 355.523438 C 66.984375 357.753906 65.472656 359.699219 63.238281 360.753906 C 63.585938 360.878906 63.867188 361.152344 63.992188 361.511719 L 66.539062 368.730469 L 68.988281 360.011719 C 69.136719 359.476562 69.628906 359.101562 70.1875 359.101562 L 107.820312 359.101562 C 108.378906 359.101562 108.871094 359.476562 109.019531 360.015625 L 111.367188 368.488281 L 113.828125 361.511719 C 113.953125 361.152344 114.234375 360.878906 114.582031 360.753906 C 112.347656 359.699219 110.835938 357.753906 110.800781 355.523438 C 110.445312 352.234375 110.234375 348.90625 110.164062 345.589844 L 108.675781 346.613281 C 106.503906 348.109375 103.785156 348.847656 101.078125 348.847656 C 97.925781 348.847656 94.785156 347.851562 92.519531 345.902344 L 91.96875 345.425781 C 91.0625 344.644531 90.574219 343.570312 90.632812 342.472656 C 90.691406 341.347656 91.320312 340.292969 92.351562 339.578125 L 108.925781 328.167969 C 110.503906 327.078125 112.644531 326.636719 114.691406 326.953125 C 115.058594 326.882812 115.4375 326.84375 115.820312 326.84375 L 123.03125 326.84375 C 124.570312 326.84375 125.945312 327.417969 126.867188 328.324219 C 127.734375 327.414062 128.953125 326.84375 130.304688 326.84375 L 138.0625 326.84375 C 139.414062 326.84375 140.632812 327.414062 141.496094 328.324219 C 142.417969 327.417969 143.796875 326.84375 145.332031 326.84375 L 152.542969 326.84375 C 153.824219 326.84375 155.042969 327.238281 155.972656 327.953125 C 155.976562 327.953125 155.976562 327.957031 155.980469 327.960938 C 157.039062 327.628906 158.105469 327.628906 159.066406 327.632812 L 159.503906 327.632812 L 164.1875 327.605469 C 164.207031 327.605469 164.230469 327.605469 164.25 327.605469 C 166.21875 327.605469 167.304688 328.074219 168.53125 329.441406 C 169.492188 330.511719 170.253906 331.773438 170.789062 333.191406 C 171.90625 336.144531 171.90625 339.496094 171.902344 342.453125 L 171.902344 343.011719 C 171.90625 346.242188 171.703125 349.496094 171.507812 352.644531 L 171.484375 353.019531 C 171.414062 354.175781 171.339844 355.375 170.976562 356.578125 C 170.425781 358.40625 169.132812 359.820312 167.359375 360.679688 L 168.097656 360.679688 C 168.628906 360.679688 169.097656 361.011719 169.273438 361.511719 L 173.21875 372.699219 Z M 175.675781 372.699219 " fill-opacity="1" fill-rule="nonzero"/></g><path fill="#f6f4e7" d="M 0.5 44.339844 L 226.960938 44.339844 L 226.960938 201.511719 L 0.5 201.511719 Z M 0.5 44.339844 " fill-opacity="1" fill-rule="nonzero"/><path fill="#ec6a2c" d="M 225.867188 45.109375 L 225.867188 125.011719 L 217.816406 113.304688 L 213.449219 108.042969 L 204.761719 99.921875 L 185.152344 91.980469 L 174.371094 91.074219 L 155.402344 45.109375 Z M 0.5 130.09375 L 11.691406 112.398438 L 23.429688 101.554688 L 37.121094 94.113281 L 46.539062 92.023438 L 52.726562 92.023438 L 56.820312 74.785156 L 69.832031 45.15625 L 1.59375 45.15625 Z M 0.5 130.09375 " fill-opacity="1" fill-rule="nonzero"/><g clip-path="url(#35c861aa92)"><path fill="#000000" d="M 130.789062 107.089844 C 130.5625 106.226562 131.0625 105.363281 131.925781 105.136719 C 134.019531 104.59375 136.15625 104.277344 138.296875 104.230469 C 140.890625 104.183594 143.4375 104.457031 145.9375 105.136719 C 146.804688 105.363281 147.304688 106.226562 147.074219 107.089844 C 146.847656 107.949219 145.984375 108.449219 145.121094 108.222656 C 142.9375 107.632812 140.660156 107.359375 138.386719 107.40625 C 136.476562 107.453125 134.609375 107.722656 132.746094 108.222656 C 132.609375 108.269531 132.472656 108.269531 132.335938 108.269531 C 131.609375 108.269531 130.972656 107.816406 130.789062 107.089844 Z M 114.503906 134.402344 C 115.1875 134.402344 115.867188 134.359375 116.503906 134.222656 C 120.691406 133.449219 124.238281 130.320312 125.785156 126.007812 C 126.058594 125.191406 125.648438 124.285156 124.832031 123.96875 C 124.011719 123.695312 123.101562 124.105469 122.78125 124.921875 C 121.644531 128.140625 119.007812 130.5 115.960938 131.046875 C 111.773438 131.816406 107.453125 129.183594 105.722656 124.828125 C 105.40625 124.011719 104.496094 123.605469 103.675781 123.921875 C 102.859375 124.238281 102.449219 125.148438 102.765625 125.964844 C 104.769531 131.136719 109.5 134.402344 114.503906 134.402344 Z M 227.460938 45.109375 L 227.460938 200.738281 C 227.460938 201.601562 226.734375 202.328125 225.867188 202.328125 L 129.878906 202.328125 L 128.332031 202.644531 C 128.289062 202.554688 128.289062 202.417969 128.242188 202.328125 L 99.171875 202.328125 C 99.128906 202.417969 99.128906 202.554688 99.082031 202.644531 L 97.535156 202.328125 L 1.59375 202.328125 C 0.726562 202.328125 0 201.601562 0 200.738281 L 0 45.109375 C 0 44.246094 0.726562 43.519531 1.59375 43.519531 L 225.867188 43.519531 C 226.734375 43.519531 227.460938 44.246094 227.460938 45.109375 Z M 64.507812 91.253906 C 58.820312 92.296875 55.363281 99.332031 56.730469 106.953125 C 57.367188 110.582031 59.367188 113.804688 62.371094 116.074219 C 65.144531 118.160156 68.328125 119.113281 71.105469 118.613281 C 71.332031 118.566406 71.558594 118.566406 71.742188 118.613281 C 72.515625 118.703125 73.152344 119.386719 73.152344 120.203125 C 73.152344 143.886719 91.804688 163.167969 114.730469 163.167969 C 137.660156 163.167969 156.3125 143.886719 156.3125 120.203125 C 156.3125 120.15625 156.3125 120.066406 156.3125 120.019531 C 156.3125 119.976562 156.3125 119.929688 156.3125 119.882812 C 156.445312 119.023438 157.3125 118.433594 158.175781 118.613281 C 164.816406 119.839844 171.367188 113.351562 172.507812 107 C 173.871094 99.375 170.414062 92.34375 164.726562 91.300781 C 161.90625 90.800781 159.675781 92.023438 159.449219 92.117188 C 158.039062 93.070312 157.265625 94.382812 156.902344 95.382812 C 156.902344 95.429688 156.855469 95.472656 156.8125 95.519531 C 156.8125 95.5625 156.765625 95.609375 156.765625 95.65625 C 156.765625 95.699219 156.71875 95.699219 156.675781 95.746094 C 156.628906 95.792969 156.582031 95.835938 156.539062 95.882812 C 155.582031 96.835938 152.988281 99.011719 149.078125 99.285156 C 145.300781 99.558594 142.527344 97.96875 141.207031 97.015625 C 140.796875 96.699219 140.480469 96.289062 140.296875 95.835938 L 136.113281 84.765625 L 133.519531 96.5625 C 133.335938 97.332031 132.835938 98.015625 132.109375 98.332031 C 129.515625 99.648438 126.742188 100.554688 123.921875 101.054688 C 117.097656 102.28125 111.183594 100.917969 107.453125 99.511719 C 106.589844 99.195312 105.949219 98.46875 105.769531 97.5625 L 103.3125 85.445312 L 99.582031 96.019531 C 99.355469 96.699219 98.855469 97.199219 98.21875 97.515625 C 94.988281 99.058594 89.753906 100.738281 83.476562 99.921875 C 79.839844 99.464844 76.425781 98.242188 73.242188 96.289062 C 72.789062 96.019531 72.421875 95.5625 72.195312 95.066406 C 71.832031 94.15625 71.105469 92.933594 69.785156 92.070312 C 69.695312 92.070312 67.375 90.753906 64.507812 91.253906 Z M 3.183594 122.46875 C 11.554688 108.132812 22.335938 98.242188 35.300781 93.070312 C 39.351562 91.480469 43.625 90.347656 47.996094 89.664062 C 49.996094 78.914062 52.226562 70.789062 55.226562 63.441406 C 57.683594 57.359375 61.003906 51.734375 65.097656 46.699219 L 3.183594 46.699219 Z M 127.105469 199.152344 C 124.601562 194.023438 119.417969 190.800781 113.730469 190.800781 C 108 190.800781 102.8125 194.070312 100.355469 199.152344 Z M 196.160156 178.777344 C 196.160156 174.738281 192.886719 171.429688 188.792969 171.429688 L 37.53125 171.429688 C 33.480469 171.429688 30.160156 174.695312 30.160156 178.777344 L 30.160156 199.152344 L 96.851562 199.152344 C 96.945312 198.921875 96.988281 198.695312 97.082031 198.515625 C 99.945312 191.890625 106.453125 187.625 113.683594 187.625 C 120.917969 187.625 127.46875 191.890625 130.289062 198.5625 C 130.378906 198.742188 130.472656 198.96875 130.515625 199.195312 L 196.070312 199.195312 L 196.070312 178.777344 Z M 224.277344 125.464844 C 216.132812 110.992188 205.625 101.101562 192.933594 96.019531 C 189.203125 94.519531 185.242188 93.476562 181.148438 92.84375 C 183.152344 106.179688 182.421875 119.976562 178.691406 132.632812 C 176.328125 140.753906 172.6875 148.46875 167.957031 155.59375 C 167.683594 156.046875 167.183594 156.320312 166.636719 156.320312 L 142.480469 156.320312 C 142.480469 156.320312 142.4375 156.320312 142.4375 156.320312 C 134.792969 162.578125 125.148438 166.300781 114.640625 166.300781 C 104.359375 166.300781 94.894531 162.714844 87.34375 156.679688 C 87.164062 156.773438 86.933594 156.816406 86.707031 156.816406 L 62.550781 156.816406 C 62.050781 156.816406 61.597656 156.589844 61.277344 156.183594 C 56 149.242188 49.132812 137.714844 46.582031 122.152344 C 45.265625 114.078125 45.265625 105.820312 46.539062 97.652344 C 46.8125 95.925781 47.085938 94.382812 47.3125 92.886719 C 43.535156 93.523438 39.851562 94.519531 36.394531 95.925781 C 22.746094 101.507812 11.507812 112.625 3.183594 129.140625 L 3.183594 199.152344 L 26.976562 199.152344 L 26.976562 178.777344 C 26.976562 172.96875 31.707031 168.25 37.53125 168.25 L 188.792969 168.25 C 194.613281 168.25 199.347656 172.96875 199.347656 178.777344 L 199.347656 199.152344 L 224.277344 199.152344 Z M 224.277344 46.699219 L 160.996094 46.699219 C 170.960938 58.402344 177.691406 73.605469 180.605469 89.574219 C 185.289062 90.210938 189.792969 91.390625 194.070312 93.070312 C 206.035156 97.832031 216.132812 106.636719 224.230469 119.25 L 224.230469 46.699219 Z M 137.75 116.933594 C 136.429688 116.933594 135.382812 117.976562 135.382812 119.292969 C 135.382812 120.609375 136.429688 121.652344 137.75 121.652344 C 139.070312 121.652344 140.117188 120.609375 140.117188 119.292969 C 140.117188 117.976562 139.070312 116.933594 137.75 116.933594 Z M 160.042969 109.085938 C 159.402344 109.675781 159.3125 110.671875 159.90625 111.308594 C 160.222656 111.671875 160.679688 111.851562 161.085938 111.851562 C 161.453125 111.851562 161.859375 111.71875 162.132812 111.445312 C 162.769531 110.855469 164.910156 108.722656 164.910156 105.320312 C 164.910156 101.917969 162.816406 99.738281 162.132812 99.195312 C 161.496094 98.605469 160.449219 98.648438 159.90625 99.332031 C 159.3125 99.964844 159.359375 101.007812 160.042969 101.554688 C 160.3125 101.824219 161.722656 103.1875 161.722656 105.320312 C 161.722656 107.453125 160.3125 108.8125 160.042969 109.085938 Z M 67.054688 111.445312 C 67.375 111.71875 67.738281 111.851562 68.101562 111.851562 C 68.554688 111.851562 68.964844 111.671875 69.285156 111.308594 C 69.875 110.671875 69.832031 109.628906 69.148438 109.085938 C 68.875 108.8125 67.464844 107.453125 67.464844 105.320312 C 67.464844 103.1875 68.875 101.78125 69.148438 101.554688 C 69.785156 100.964844 69.875 99.964844 69.285156 99.332031 C 68.691406 98.695312 67.691406 98.605469 67.054688 99.195312 C 66.417969 99.785156 64.28125 101.917969 64.28125 105.320312 C 64.28125 108.722656 66.417969 110.855469 67.054688 111.445312 Z M 99.628906 146.609375 C 99.492188 146.15625 99.582031 145.609375 99.855469 145.203125 C 100.128906 144.792969 100.582031 144.566406 101.082031 144.523438 C 101.128906 144.523438 107.679688 144.292969 114.230469 144.203125 C 128.105469 143.976562 128.46875 144.339844 129.105469 144.929688 C 129.425781 145.246094 129.605469 145.703125 129.605469 146.109375 C 129.605469 148.832031 128.46875 151.328125 126.332031 153.371094 C 123.464844 156.089844 118.917969 157.816406 114.59375 157.816406 C 114.367188 157.816406 114.140625 157.816406 113.914062 157.816406 C 107.316406 157.5 101.582031 153.007812 99.628906 146.609375 Z M 103.449219 147.652344 C 105.449219 151.691406 109.5 154.414062 114.046875 154.640625 C 117.734375 154.820312 121.78125 153.371094 124.148438 151.101562 C 125.285156 150.011719 126.011719 148.785156 126.285156 147.425781 C 122.875 147.242188 112.957031 147.378906 103.449219 147.652344 Z M 80.792969 108.269531 C 80.929688 108.269531 81.066406 108.269531 81.203125 108.222656 C 83.386719 107.632812 85.660156 107.359375 87.9375 107.40625 C 89.847656 107.453125 91.710938 107.722656 93.578125 108.222656 C 94.441406 108.449219 95.304688 107.949219 95.535156 107.089844 C 95.761719 106.226562 95.261719 105.363281 94.394531 105.136719 C 92.304688 104.59375 90.164062 104.277344 88.027344 104.230469 C 85.433594 104.183594 82.886719 104.457031 80.382812 105.136719 C 79.519531 105.363281 79.019531 106.226562 79.246094 107.089844 C 79.429688 107.816406 80.066406 108.269531 80.792969 108.269531 Z M 88.847656 116.933594 C 87.527344 116.933594 86.480469 117.976562 86.480469 119.292969 C 86.480469 120.609375 87.527344 121.652344 88.847656 121.652344 C 90.164062 121.652344 91.210938 120.609375 91.210938 119.292969 C 91.210938 117.976562 90.121094 116.933594 88.847656 116.933594 Z M 88.847656 116.933594 " fill-opacity="1" fill-rule="nonzero"/></g><g clip-path="url(#40d496d449)"><path fill="#f6f4e7" d="M 215.859375 43.777344 L 374.40625 43.777344 L 374.40625 202.324219 L 215.859375 202.324219 Z M 215.859375 43.777344 " fill-opacity="1" fill-rule="nonzero"/></g><path fill="#f2cdfc" d="M 284.113281 44.574219 L 275.65625 53.398438 L 276.894531 54.59375 L 266.605469 72.792969 L 262.589844 85.660156 C 262.589844 85.660156 262.652344 90.945312 262.589844 92.582031 C 262.527344 94.222656 266.191406 100.851562 266.191406 100.851562 L 262.589844 112.730469 L 260.0625 120.023438 L 257.183594 120.734375 L 245.875 123.523438 C 245.875 123.523438 243.355469 124.863281 237.683594 125.589844 C 232.007812 126.3125 232.289062 130.164062 232.289062 130.164062 L 230.496094 136.679688 L 230.136719 149.050781 L 227.378906 173.761719 L 223.933594 201.554688 L 216.640625 201.554688 L 216.640625 44.574219 Z M 317.703125 44.574219 L 327.417969 52.496094 L 332.5 61.121094 L 335.105469 70.257812 C 335.105469 70.257812 336.867188 85.71875 337.117188 92.488281 C 337.371094 99.257812 335.195312 118.171875 335.195312 118.171875 L 333.839844 122.199219 C 333.839844 122.199219 338.570312 123.289062 346.628906 125.140625 C 354.683594 126.992188 357.0625 134.046875 357.0625 134.046875 L 359.945312 146.050781 L 371.964844 199.882812 L 373.621094 198.410156 L 373.621094 44.574219 Z M 317.703125 44.574219 " fill-opacity="1" fill-rule="nonzero"/><g clip-path="url(#d2df0d80be)"><path fill="#000000" d="M 295.25 76.257812 C 295.25 75.308594 296.023438 74.539062 296.96875 74.539062 C 297.917969 74.539062 298.6875 75.308594 298.6875 76.257812 C 298.6875 77.203125 297.917969 77.972656 296.96875 77.972656 C 296.023438 77.972656 295.25 77.203125 295.25 76.257812 Z M 276.894531 67.542969 C 277.839844 67.542969 278.609375 66.773438 278.609375 65.824219 C 278.609375 64.878906 277.839844 64.109375 276.894531 64.109375 C 275.945312 64.109375 275.175781 64.878906 275.175781 65.824219 C 275.175781 66.773438 275.945312 67.542969 276.894531 67.542969 Z M 298.785156 69.921875 C 299.496094 70.023438 300.191406 70.222656 300.847656 70.507812 C 301.878906 70.957031 302.796875 71.613281 303.578125 72.457031 C 303.796875 72.691406 304.097656 72.8125 304.394531 72.8125 C 304.667969 72.8125 304.9375 72.714844 305.152344 72.515625 C 305.605469 72.097656 305.632812 71.394531 305.214844 70.941406 C 304.222656 69.871094 303.054688 69.039062 301.738281 68.464844 C 300.902344 68.101562 300.015625 67.847656 299.105469 67.714844 C 298.496094 67.625 297.929688 68.046875 297.84375 68.65625 C 297.753906 69.265625 298.175781 69.832031 298.785156 69.921875 Z M 275.9375 59.308594 C 275.960938 59.925781 276.476562 60.398438 277.09375 60.382812 C 277.816406 60.355469 278.53125 60.425781 279.230469 60.589844 C 280.324219 60.84375 281.347656 61.324219 282.265625 62.011719 C 282.46875 62.160156 282.703125 62.234375 282.933594 62.234375 C 283.273438 62.234375 283.609375 62.078125 283.828125 61.785156 C 284.195312 61.292969 284.09375 60.59375 283.601562 60.226562 C 282.433594 59.351562 281.132812 58.746094 279.734375 58.417969 C 278.847656 58.210938 277.929688 58.121094 277.011719 58.15625 C 276.398438 58.179688 275.917969 58.695312 275.9375 59.308594 Z M 274.511719 71.5 C 274.136719 71.785156 272.257812 73.335938 272.183594 75.863281 C 272.09375 78.792969 274.492188 81.53125 277.882812 82.371094 C 277.972656 82.394531 278.0625 82.40625 278.152344 82.40625 C 278.652344 82.40625 279.105469 82.066406 279.234375 81.558594 C 279.382812 80.960938 279.019531 80.359375 278.421875 80.210938 C 276.039062 79.617188 274.355469 77.816406 274.410156 75.929688 C 274.457031 74.386719 275.714844 73.386719 275.859375 73.277344 C 277.457031 72.066406 280.011719 72.292969 282.074219 73.824219 C 282.335938 74.019531 282.675781 74.089844 282.996094 74.011719 C 283.316406 73.9375 283.585938 73.722656 283.734375 73.425781 L 288.050781 64.796875 C 288.324219 64.246094 288.101562 63.574219 287.550781 63.300781 C 287 63.023438 286.332031 63.25 286.054688 63.800781 L 282.292969 71.324219 C 279.652344 69.890625 276.59375 69.921875 274.511719 71.5 Z M 310.789062 92.746094 C 311.058594 92.746094 311.332031 92.648438 311.542969 92.453125 C 312.410156 91.65625 313.570312 90.289062 314.191406 88.273438 C 314.617188 86.902344 314.722656 85.421875 314.5 83.996094 C 314.402344 83.386719 313.835938 82.972656 313.222656 83.066406 C 312.617188 83.164062 312.199219 83.734375 312.296875 84.34375 C 312.46875 85.433594 312.386719 86.566406 312.0625 87.613281 C 311.585938 89.152344 310.699219 90.203125 310.035156 90.8125 C 309.582031 91.226562 309.554688 91.933594 309.96875 92.386719 C 310.191406 92.625 310.488281 92.746094 310.789062 92.746094 Z M 285.488281 90.964844 C 285.59375 91.25 285.582031 91.566406 285.453125 91.839844 C 283.832031 95.25 280.390625 97.304688 276.835938 97.304688 C 275.757812 97.304688 274.671875 97.117188 273.621094 96.71875 C 268.789062 94.898438 266.359375 89.414062 268.207031 84.496094 C 268.3125 84.210938 268.53125 83.984375 268.8125 83.863281 C 269.089844 83.742188 269.40625 83.742188 269.6875 83.863281 L 284.882812 90.335938 C 285.160156 90.453125 285.378906 90.683594 285.488281 90.964844 Z M 282.855469 91.894531 L 269.972656 86.40625 C 269.296875 89.8125 271.148438 93.40625 274.410156 94.632812 C 277.492188 95.796875 280.992188 94.597656 282.855469 91.894531 Z M 374.738281 44.574219 L 374.738281 201.554688 C 374.738281 202.167969 374.238281 202.667969 373.621094 202.667969 L 372.339844 202.667969 C 372.335938 202.667969 372.335938 202.667969 372.335938 202.667969 L 216.640625 202.667969 C 216.027344 202.667969 215.527344 202.167969 215.527344 201.554688 L 215.527344 44.574219 C 215.527344 43.957031 216.027344 43.460938 216.640625 43.460938 L 284.386719 43.460938 C 284.390625 43.460938 284.390625 43.460938 284.390625 43.460938 L 373.621094 43.460938 C 374.238281 43.460938 374.738281 43.957031 374.738281 44.574219 Z M 278.984375 115.660156 C 278.566406 116.097656 278.0625 116.460938 277.503906 116.742188 L 292.269531 133.488281 L 308.15625 115.46875 C 308.296875 115.308594 308.480469 115.199219 308.675781 115.140625 C 306.628906 112.59375 305.542969 109.011719 305.507812 104.640625 C 305.484375 101.503906 306.003906 98.722656 306.296875 97.417969 C 306.070312 97.222656 305.855469 97.007812 305.660156 96.773438 C 303.199219 100.394531 296.179688 109.429688 286.664062 110.71875 C 286.539062 110.734375 285.621094 110.851562 284.203125 110.851562 C 283.183594 110.851562 281.894531 110.789062 280.457031 110.589844 C 280.742188 112.488281 280.222656 114.375 278.984375 115.660156 Z M 275.15625 117.453125 L 267.304688 119.386719 L 271.023438 140.921875 C 273.863281 141.683594 280.925781 142.9375 286.972656 138.898438 C 288.441406 137.917969 289.742188 136.695312 290.855469 135.257812 Z M 271.4375 143.316406 L 273.222656 153.632812 L 314.910156 153.632812 L 317.035156 141.335938 C 314.382812 142.367188 311.628906 142.898438 308.820312 142.917969 C 308.769531 142.917969 308.71875 142.917969 308.667969 142.917969 C 300.992188 142.917969 295.355469 139.027344 292.609375 136.632812 C 291.347656 138.253906 289.875 139.640625 288.210938 140.75 C 284.5 143.234375 280.476562 143.945312 277.078125 143.945312 C 274.835938 143.945312 272.867188 143.636719 271.4375 143.316406 Z M 317.488281 138.714844 L 320.667969 120.316406 L 313.777344 118.734375 C 313.730469 118.722656 313.683594 118.707031 313.636719 118.691406 C 312.359375 118.214844 311.199219 117.542969 310.195312 116.703125 C 310.144531 116.660156 310.097656 116.613281 310.046875 116.566406 C 310 116.703125 309.925781 116.832031 309.828125 116.945312 L 294.003906 134.890625 C 296.476562 137.070312 301.644531 140.691406 308.667969 140.691406 C 308.710938 140.691406 308.757812 140.691406 308.804688 140.691406 C 311.785156 140.667969 314.703125 140 317.488281 138.714844 Z M 277.582031 56.09375 C 276.992188 56.875 272.402344 63.054688 268.628906 71.027344 C 265.289062 78.082031 261.917969 88.105469 264.808594 95.824219 C 266.382812 100.027344 269.289062 102.949219 269.316406 102.980469 C 276.195312 109.796875 285.953125 108.566406 286.363281 108.507812 C 296.402344 107.148438 303.710938 95.761719 304.566406 94.363281 C 304.636719 93.996094 304.882812 93.667969 305.261719 93.527344 C 305.835938 93.304688 306.480469 93.59375 306.699219 94.167969 C 307.027344 95.019531 307.503906 95.632812 308.109375 95.980469 C 310.480469 97.347656 314.507812 94.988281 316.914062 90.828125 C 319.316406 86.664062 319.34375 81.992188 316.976562 80.625 C 315.683594 79.878906 313.714844 80.597656 312.65625 81.089844 C 312.132812 81.335938 311.507812 81.136719 311.21875 80.636719 C 310.210938 78.882812 309.40625 77.023438 308.824219 75.109375 C 308.328125 73.472656 307.988281 71.792969 307.816406 70.101562 L 302.125 67.144531 C 301.707031 66.925781 301.472656 66.472656 301.53125 66.007812 L 301.910156 63.171875 L 300.386719 65.058594 C 300.074219 65.445312 299.550781 65.578125 299.089844 65.386719 L 288.722656 61.070312 C 288.257812 60.875 287.980469 60.398438 288.046875 59.898438 L 288.40625 57.085938 L 286.703125 59.085938 C 286.390625 59.453125 285.871094 59.578125 285.421875 59.390625 Z M 223.746094 200.4375 L 230.019531 133.84375 C 230.457031 129.21875 233.78125 125.359375 238.296875 124.242188 L 259.710938 118.964844 L 264.757812 100.691406 C 264.035156 99.53125 263.300781 98.15625 262.722656 96.609375 C 260.179688 89.824219 261.492188 80.898438 266.613281 70.074219 C 270.058594 62.792969 274.179688 56.957031 275.46875 55.203125 L 274.875 54.953125 C 274.570312 54.824219 274.335938 54.570312 274.238281 54.253906 C 274.144531 53.9375 274.191406 53.59375 274.371094 53.316406 C 276.304688 50.363281 278.546875 47.808594 281.0625 45.6875 L 217.757812 45.6875 L 217.757812 200.4375 Z M 244.054688 153.632812 L 270.960938 153.632812 L 265.132812 119.921875 L 238.832031 126.40625 C 235.234375 127.296875 232.585938 130.367188 232.242188 134.050781 L 225.988281 200.4375 L 234.6875 200.4375 L 234.6875 163.003906 C 234.6875 157.835938 238.890625 153.632812 244.054688 153.632812 Z M 302.664062 197.371094 C 302.664062 193.125 299.210938 189.671875 294.964844 189.671875 C 290.722656 189.671875 287.269531 193.125 287.269531 197.371094 C 287.269531 198.425781 287.488281 199.476562 287.90625 200.4375 L 302.027344 200.4375 C 302.445312 199.476562 302.664062 198.425781 302.664062 197.371094 Z M 351.9375 163.003906 C 351.9375 159.066406 348.734375 155.863281 344.796875 155.863281 L 244.054688 155.863281 C 240.117188 155.863281 236.917969 159.066406 236.917969 163.003906 L 236.917969 200.4375 L 285.527344 200.4375 C 285.207031 199.453125 285.039062 198.414062 285.039062 197.371094 C 285.039062 191.894531 289.492188 187.445312 294.964844 187.445312 C 300.441406 187.445312 304.890625 191.894531 304.890625 197.371094 C 304.890625 198.414062 304.726562 199.453125 304.40625 200.4375 L 351.9375 200.4375 Z M 370.949219 200.4375 L 356.699219 136.613281 C 355.554688 131.480469 351.503906 127.402344 346.378906 126.226562 L 322.84375 120.816406 L 317.175781 153.632812 L 344.796875 153.632812 C 349.960938 153.632812 354.164062 157.835938 354.164062 163.003906 L 354.164062 200.4375 Z M 372.507812 45.6875 L 321.550781 45.6875 C 323.199219 46.847656 324.734375 48.109375 326.132812 49.472656 C 335.066406 58.164062 336.738281 70.183594 337.769531 82.773438 C 338.8125 95.433594 338.132812 108.457031 335.753906 121.496094 L 346.878906 124.054688 C 352.832031 125.421875 357.542969 130.160156 358.875 136.128906 L 372.507812 197.195312 Z M 372.507812 45.6875 " fill-opacity="1" fill-rule="nonzero"/></g><g fill="#000000" fill-opacity="1"><g transform="translate(39.540989, 29.532972)"><g><path d="M 11.359375 -18.671875 L 5.640625 -12.609375 L 11.359375 -6.640625 L 8.890625 -4.0625 L 0.78125 -12.609375 L 8.890625 -21.21875 Z M 11.359375 -18.671875 "/></g></g></g><g fill="#000000" fill-opacity="1"><g transform="translate(50.749073, 29.532972)"><g/></g></g><g fill="#000000" fill-opacity="1"><g transform="translate(61.809679, 29.532972)"><g><path d="M 14.984375 -3.953125 C 16.160156 -3.953125 17.273438 -4.175781 18.328125 -4.625 C 19.390625 -5.082031 20.300781 -5.691406 21.0625 -6.453125 L 24.09375 -3.390625 C 22.9375 -2.234375 21.578125 -1.316406 20.015625 -0.640625 C 18.453125 0.0351562 16.773438 0.375 14.984375 0.375 C 13.210938 0.375 11.535156 0.0664062 9.953125 -0.546875 C 8.378906 -1.160156 7.003906 -2.050781 5.828125 -3.21875 C 4.648438 -4.394531 3.722656 -5.800781 3.046875 -7.4375 C 2.367188 -9.070312 2.03125 -10.894531 2.03125 -12.90625 C 2.03125 -15.519531 2.582031 -17.820312 3.6875 -19.8125 C 4.789062 -21.800781 6.320312 -23.359375 8.28125 -24.484375 C 10.238281 -25.617188 12.472656 -26.1875 14.984375 -26.1875 C 16.773438 -26.1875 18.453125 -25.847656 20.015625 -25.171875 C 21.578125 -24.492188 22.9375 -23.566406 24.09375 -22.390625 L 21.0625 -19.375 C 20.300781 -20.15625 19.390625 -20.765625 18.328125 -21.203125 C 17.273438 -21.648438 16.160156 -21.875 14.984375 -21.875 C 13.210938 -21.875 11.6875 -21.484375 10.40625 -20.703125 C 9.125 -19.929688 8.140625 -18.875 7.453125 -17.53125 C 6.765625 -16.195312 6.421875 -14.65625 6.421875 -12.90625 C 6.421875 -11.0625 6.800781 -9.46875 7.5625 -8.125 C 8.320312 -6.789062 9.351562 -5.757812 10.65625 -5.03125 C 11.957031 -4.3125 13.398438 -3.953125 14.984375 -3.953125 Z M 14.984375 -3.953125 "/></g></g></g><g fill="#000000" fill-opacity="1"><g transform="translate(85.738301, 29.532972)"><g><path d="M 11.6875 -7.015625 C 10.363281 -7.015625 9.125 -7.265625 7.96875 -7.765625 C 6.8125 -8.265625 5.796875 -8.953125 4.921875 -9.828125 C 4.046875 -10.703125 3.359375 -11.71875 2.859375 -12.875 C 2.359375 -14.03125 2.109375 -15.269531 2.109375 -16.59375 C 2.109375 -17.925781 2.359375 -19.171875 2.859375 -20.328125 C 3.359375 -21.484375 4.046875 -22.5 4.921875 -23.375 C 5.796875 -24.25 6.8125 -24.9375 7.96875 -25.4375 C 9.125 -25.9375 10.363281 -26.1875 11.6875 -26.1875 C 13.019531 -26.1875 14.265625 -25.9375 15.421875 -25.4375 C 16.578125 -24.9375 17.585938 -24.25 18.453125 -23.375 C 19.328125 -22.5 20.015625 -21.484375 20.515625 -20.328125 C 21.023438 -19.171875 21.28125 -17.925781 21.28125 -16.59375 C 21.28125 -15.269531 21.023438 -14.03125 20.515625 -12.875 C 20.015625 -11.71875 19.328125 -10.703125 18.453125 -9.828125 C 17.585938 -8.953125 16.578125 -8.265625 15.421875 -7.765625 C 14.265625 -7.265625 13.019531 -7.015625 11.6875 -7.015625 Z M 11.6875 -21.90625 C 10.707031 -21.90625 9.816406 -21.664062 9.015625 -21.1875 C 8.222656 -20.707031 7.582031 -20.066406 7.09375 -19.265625 C 6.613281 -18.472656 6.375 -17.582031 6.375 -16.59375 C 6.375 -15.613281 6.613281 -14.722656 7.09375 -13.921875 C 7.582031 -13.128906 8.222656 -12.488281 9.015625 -12 C 9.816406 -11.519531 10.707031 -11.28125 11.6875 -11.28125 C 12.675781 -11.28125 13.566406 -11.519531 14.359375 -12 C 15.160156 -12.488281 15.800781 -13.128906 16.28125 -13.921875 C 16.757812 -14.722656 17 -15.613281 17 -16.59375 C 17 -17.582031 16.757812 -18.472656 16.28125 -19.265625 C 15.800781 -20.066406 15.160156 -20.707031 14.359375 -21.1875 C 13.566406 -21.664062 12.675781 -21.90625 11.6875 -21.90625 Z M 20.109375 0 L 3.0625 0 L 3.0625 -4.28125 L 20.109375 -4.28125 Z M 20.109375 0 "/></g></g></g><g fill="#000000" fill-opacity="1"><g transform="translate(107.602131, 29.532972)"><g><path d="M 7.234375 -25.828125 C 8.484375 -25.828125 9.800781 -25.738281 11.1875 -25.5625 C 12.582031 -25.394531 13.9375 -25.0625 15.25 -24.5625 C 16.570312 -24.070312 17.757812 -23.351562 18.8125 -22.40625 C 19.875 -21.457031 20.722656 -20.207031 21.359375 -18.65625 C 21.992188 -17.113281 22.3125 -15.195312 22.3125 -12.90625 C 22.3125 -10.695312 22 -8.832031 21.375 -7.3125 C 20.75 -5.800781 19.90625 -4.5625 18.84375 -3.59375 C 17.789062 -2.625 16.613281 -1.878906 15.3125 -1.359375 C 14.007812 -0.847656 12.65625 -0.492188 11.25 -0.296875 C 9.851562 -0.0976562 8.515625 0 7.234375 0 L 2.921875 0 L 2.921875 -25.828125 Z M 7.234375 -4.203125 C 7.234375 -4.203125 7.488281 -4.179688 8 -4.140625 C 8.519531 -4.109375 9.1875 -4.128906 10 -4.203125 C 10.8125 -4.273438 11.675781 -4.453125 12.59375 -4.734375 C 13.519531 -5.023438 14.390625 -5.488281 15.203125 -6.125 C 16.015625 -6.757812 16.675781 -7.625 17.1875 -8.71875 C 17.707031 -9.8125 17.96875 -11.207031 17.96875 -12.90625 C 17.96875 -14.632812 17.707031 -16.050781 17.1875 -17.15625 C 16.675781 -18.257812 16.015625 -19.128906 15.203125 -19.765625 C 14.390625 -20.410156 13.519531 -20.867188 12.59375 -21.140625 C 11.675781 -21.410156 10.8125 -21.578125 10 -21.640625 C 9.1875 -21.703125 8.519531 -21.710938 8 -21.671875 C 7.488281 -21.640625 7.234375 -21.625 7.234375 -21.625 Z M 7.234375 -4.203125 "/></g></g></g><g fill="#000000" fill-opacity="1"><g transform="translate(130.350881, 29.532972)"><g><path d="M 7.234375 -21.5 L 7.234375 -15.046875 L 17.96875 -15.046875 L 17.96875 -10.765625 L 7.234375 -10.765625 L 7.234375 -4.3125 L 20.140625 -4.3125 L 20.140625 0 L 2.921875 0 L 2.921875 -25.828125 L 20.140625 -25.828125 L 20.140625 -21.5 Z M 7.234375 -21.5 "/></g></g></g><g fill="#000000" fill-opacity="1"><g transform="translate(150.371156, 29.532972)"><g/></g></g><g fill="#8dcc3d" fill-opacity="1"><g transform="translate(161.450039, 29.532972)"><g><path d="M 25.828125 -14.6875 L 25.828125 0.109375 L 22.0625 0.109375 L 21.84375 -2.328125 C 20.78125 -1.335938 19.671875 -0.640625 18.515625 -0.234375 C 17.359375 0.171875 16.019531 0.375 14.5 0.375 C 12.1875 0.375 10.09375 -0.144531 8.21875 -1.1875 C 6.351562 -2.238281 4.875 -3.753906 3.78125 -5.734375 C 2.6875 -7.710938 2.140625 -10.101562 2.140625 -12.90625 C 2.140625 -14.832031 2.46875 -16.601562 3.125 -18.21875 C 3.789062 -19.84375 4.71875 -21.25 5.90625 -22.4375 C 7.101562 -23.632812 8.484375 -24.554688 10.046875 -25.203125 C 11.609375 -25.859375 13.273438 -26.1875 15.046875 -26.1875 C 16.847656 -26.1875 18.523438 -25.847656 20.078125 -25.171875 C 21.640625 -24.492188 23 -23.566406 24.15625 -22.390625 L 21.140625 -19.375 C 20.378906 -20.15625 19.46875 -20.765625 18.40625 -21.203125 C 17.351562 -21.648438 16.234375 -21.875 15.046875 -21.875 C 13.472656 -21.875 12.035156 -21.515625 10.734375 -20.796875 C 9.429688 -20.085938 8.390625 -19.066406 7.609375 -17.734375 C 6.835938 -16.410156 6.453125 -14.800781 6.453125 -12.90625 C 6.453125 -10.820312 6.835938 -9.113281 7.609375 -7.78125 C 8.390625 -6.457031 9.429688 -5.488281 10.734375 -4.875 C 12.035156 -4.257812 13.472656 -3.953125 15.046875 -3.953125 C 16.347656 -3.953125 17.550781 -4.207031 18.65625 -4.71875 C 19.769531 -5.238281 20.71875 -5.953125 21.5 -6.859375 L 21.5 -10.59375 L 17.1875 -10.59375 L 17.1875 -14.6875 Z M 25.828125 -14.6875 "/></g></g></g><g fill="#8dcc3d" fill-opacity="1"><g transform="translate(188.291467, 29.532972)"><g><path d="M 14.828125 -2.984375 L 5.75 -2.984375 L 4.640625 0 L 0 0 L 10.296875 -26.5625 L 20.625 0 L 15.96875 0 Z M 7.15625 -6.71875 L 13.421875 -6.71875 L 10.296875 -15.671875 Z M 7.15625 -6.71875 "/></g></g></g><g fill="#8dcc3d" fill-opacity="1"><g transform="translate(207.242494, 29.532972)"><g><path d="M 16.453125 0 L 9.734375 -10.765625 L 7.265625 -10.765625 L 7.265625 0 L 2.953125 0 L 2.953125 -15.046875 L 7.046875 -15.046875 L 2.953125 -21.5 L 2.953125 -25.828125 L 11.546875 -25.828125 C 11.546875 -25.828125 11.753906 -25.8125 12.171875 -25.78125 C 12.585938 -25.757812 13.117188 -25.679688 13.765625 -25.546875 C 14.421875 -25.410156 15.117188 -25.1875 15.859375 -24.875 C 16.597656 -24.570312 17.289062 -24.144531 17.9375 -23.59375 C 18.59375 -23.039062 19.128906 -22.332031 19.546875 -21.46875 C 19.960938 -20.601562 20.171875 -19.546875 20.171875 -18.296875 C 20.171875 -16.773438 19.867188 -15.535156 19.265625 -14.578125 C 18.671875 -13.617188 17.9375 -12.878906 17.0625 -12.359375 C 16.1875 -11.835938 15.332031 -11.457031 14.5 -11.21875 L 21.5 0 Z M 12.09375 -15.09375 C 12.488281 -15.132812 12.984375 -15.238281 13.578125 -15.40625 C 14.171875 -15.582031 14.695312 -15.898438 15.15625 -16.359375 C 15.625 -16.816406 15.859375 -17.460938 15.859375 -18.296875 C 15.859375 -19.109375 15.644531 -19.726562 15.21875 -20.15625 C 14.789062 -20.59375 14.285156 -20.90625 13.703125 -21.09375 C 13.128906 -21.289062 12.625 -21.40625 12.1875 -21.4375 C 11.757812 -21.476562 11.546875 -21.5 11.546875 -21.5 L 8.078125 -21.5 Z M 12.09375 -15.09375 "/></g></g></g><g fill="#8dcc3d" fill-opacity="1"><g transform="translate(228.147675, 29.532972)"><g><path d="M 7.234375 -25.828125 C 8.484375 -25.828125 9.800781 -25.738281 11.1875 -25.5625 C 12.582031 -25.394531 13.9375 -25.0625 15.25 -24.5625 C 16.570312 -24.070312 17.757812 -23.351562 18.8125 -22.40625 C 19.875 -21.457031 20.722656 -20.207031 21.359375 -18.65625 C 21.992188 -17.113281 22.3125 -15.195312 22.3125 -12.90625 C 22.3125 -10.695312 22 -8.832031 21.375 -7.3125 C 20.75 -5.800781 19.90625 -4.5625 18.84375 -3.59375 C 17.789062 -2.625 16.613281 -1.878906 15.3125 -1.359375 C 14.007812 -0.847656 12.65625 -0.492188 11.25 -0.296875 C 9.851562 -0.0976562 8.515625 0 7.234375 0 L 2.921875 0 L 2.921875 -25.828125 Z M 7.234375 -4.203125 C 7.234375 -4.203125 7.488281 -4.179688 8 -4.140625 C 8.519531 -4.109375 9.1875 -4.128906 10 -4.203125 C 10.8125 -4.273438 11.675781 -4.453125 12.59375 -4.734375 C 13.519531 -5.023438 14.390625 -5.488281 15.203125 -6.125 C 16.015625 -6.757812 16.675781 -7.625 17.1875 -8.71875 C 17.707031 -9.8125 17.96875 -11.207031 17.96875 -12.90625 C 17.96875 -14.632812 17.707031 -16.050781 17.1875 -17.15625 C 16.675781 -18.257812 16.015625 -19.128906 15.203125 -19.765625 C 14.390625 -20.410156 13.519531 -20.867188 12.59375 -21.140625 C 11.675781 -21.410156 10.8125 -21.578125 10 -21.640625 C 9.1875 -21.703125 8.519531 -21.710938 8 -21.671875 C 7.488281 -21.640625 7.234375 -21.625 7.234375 -21.625 Z M 7.234375 -4.203125 "/></g></g></g><g fill="#8dcc3d" fill-opacity="1"><g transform="translate(250.896425, 29.532972)"><g><path d="M 7.234375 -21.5 L 7.234375 -15.046875 L 17.96875 -15.046875 L 17.96875 -10.765625 L 7.234375 -10.765625 L 7.234375 -4.3125 L 20.140625 -4.3125 L 20.140625 0 L 2.921875 0 L 2.921875 -25.828125 L 20.140625 -25.828125 L 20.140625 -21.5 Z M 7.234375 -21.5 "/></g></g></g><g fill="#8dcc3d" fill-opacity="1"><g transform="translate(270.916699, 29.532972)"><g><path d="M 24.421875 0 L 20.0625 0 L 7.234375 -18.375 L 7.234375 0 L 2.921875 0 L 2.921875 -25.828125 L 7.265625 -25.828125 L 20.140625 -7.453125 L 20.140625 -25.828125 L 24.421875 -25.828125 Z M 24.421875 0 "/></g></g></g><g fill="#8dcc3d" fill-opacity="1"><g transform="translate(296.615122, 29.532972)"><g/></g></g><g fill="#000000" fill-opacity="1"><g transform="translate(307.688015, 29.532972)"><g><path d="M 16.375 -25.828125 L 4.28125 0.03125 L 0 0.03125 L 11.984375 -25.828125 Z M 16.375 -25.828125 "/></g></g></g><g fill="#000000" fill-opacity="1"><g transform="translate(322.693822, 29.532972)"><g><path d="M 3.875 -21.21875 L 11.984375 -12.609375 L 3.875 -4.0625 L 1.40625 -6.640625 L 7.125 -12.609375 L 1.40625 -18.671875 Z M 3.875 -21.21875 "/></g></g></g></svg>