<svg width="45" height="45" viewBox="0 0 45 45" fill="none" xmlns="http://www.w3.org/2000/svg">
<circle cx="22.5" cy="22.5" r="22.5" fill="white"/>
<path d="M21.0416 29.7917H23.9583V23.9584H29.7916V21.0417H23.9583V15.2084H21.0416V21.0417H15.2083V23.9584H21.0416V29.7917ZM22.5 37.0834C20.4826 37.0834 18.5868 36.7067 16.8125 35.9532C15.0382 35.1754 13.4948 34.1303 12.1823 32.8178C10.8698 31.5053 9.82461 29.9619 9.04683 28.1876C8.29336 26.4133 7.91663 24.5174 7.91663 22.5001C7.91663 20.4827 8.29336 18.5869 9.04683 16.8126C9.82461 15.0383 10.8698 13.4949 12.1823 12.1824C13.4948 10.8699 15.0382 9.83689 16.8125 9.08341C18.5868 8.30564 20.4826 7.91675 22.5 7.91675C24.5173 7.91675 26.4132 8.30564 28.1875 9.08341C29.9618 9.83689 31.5052 10.8699 32.8177 12.1824C34.1302 13.4949 35.1632 15.0383 35.9166 16.8126C36.6944 18.5869 37.0833 20.4827 37.0833 22.5001C37.0833 24.5174 36.6944 26.4133 35.9166 28.1876C35.1632 29.9619 34.1302 31.5053 32.8177 32.8178C31.5052 34.1303 29.9618 35.1754 28.1875 35.9532C26.4132 36.7067 24.5173 37.0834 22.5 37.0834ZM22.5 34.1667C25.7569 34.1667 28.5156 33.0365 30.776 30.7761C33.0364 28.5157 34.1666 25.757 34.1666 22.5001C34.1666 19.2431 33.0364 16.4845 30.776 14.224C28.5156 11.9636 25.7569 10.8334 22.5 10.8334C19.243 10.8334 16.4843 11.9636 14.2239 14.224C11.9635 16.4845 10.8333 19.2431 10.8333 22.5001C10.8333 25.757 11.9635 28.5157 14.2239 30.7761C16.4843 33.0365 19.243 34.1667 22.5 34.1667Z" fill="#AEAEB2"/>
</svg>
