<svg width="35" height="35" viewBox="0 0 35 35" fill="none" xmlns="http://www.w3.org/2000/svg">
<path d="M16.0417 24.7917H18.9583V18.9584H24.7917V16.0417H18.9583V10.2084H16.0417V16.0417H10.2083V18.9584H16.0417V24.7917ZM17.5 32.0834C15.4826 32.0834 13.5868 31.7066 11.8125 30.9531C10.0382 30.1754 8.49478 29.1302 7.18228 27.8177C5.86978 26.5052 4.82464 24.9618 4.04686 23.1875C3.29339 21.4132 2.91666 19.5174 2.91666 17.5C2.91666 15.4827 3.29339 13.5868 4.04686 11.8125C4.82464 10.0382 5.86978 8.49481 7.18228 7.18231C8.49478 5.86981 10.0382 4.83682 11.8125 4.08335C13.5868 3.30558 15.4826 2.91669 17.5 2.91669C19.5174 2.91669 21.4132 3.30558 23.1875 4.08335C24.9618 4.83682 26.5052 5.86981 27.8177 7.18231C29.1302 8.49481 30.1632 10.0382 30.9167 11.8125C31.6944 13.5868 32.0833 15.4827 32.0833 17.5C32.0833 19.5174 31.6944 21.4132 30.9167 23.1875C30.1632 24.9618 29.1302 26.5052 27.8177 27.8177C26.5052 29.1302 24.9618 30.1754 23.1875 30.9531C21.4132 31.7066 19.5174 32.0834 17.5 32.0834ZM17.5 29.1667C20.7569 29.1667 23.5156 28.0365 25.776 25.7761C28.0364 23.5156 29.1667 20.757 29.1667 17.5C29.1667 14.2431 28.0364 11.4844 25.776 9.22398C23.5156 6.96356 20.7569 5.83335 17.5 5.83335C14.243 5.83335 11.4844 6.96356 9.22395 9.22398C6.96353 11.4844 5.83332 14.2431 5.83332 17.5C5.83332 20.757 6.96353 23.5156 9.22395 25.7761C11.4844 28.0365 14.243 29.1667 17.5 29.1667Z" fill="#AEAEB2"/>
</svg>
