<svg xmlns="http://www.w3.org/2000/svg" xmlns:xlink="http://www.w3.org/1999/xlink" width="100" zoomAndPan="magnify" viewBox="0 0 75 74.999997" height="100" preserveAspectRatio="xMidYMid meet" version="1.0"><defs><clipPath id="dff04b93f5"><path d="M 1.351562 1.199219 L 74 1.199219 L 74 73.949219 L 1.351562 73.949219 Z M 1.351562 1.199219 " clip-rule="nonzero"/></clipPath><clipPath id="b550acf857"><path d="M 7 41 L 68 41 L 68 73.949219 L 7 73.949219 Z M 7 41 " clip-rule="nonzero"/></clipPath><clipPath id="c5fb711ec7"><path d="M 26.324219 12.601562 L 48.824219 12.601562 L 48.824219 35.101562 L 26.324219 35.101562 Z M 26.324219 12.601562 " clip-rule="nonzero"/></clipPath><clipPath id="9c9d8c27a2"><path d="M 37.574219 12.601562 C 31.363281 12.601562 26.324219 17.636719 26.324219 23.851562 C 26.324219 30.0625 31.363281 35.101562 37.574219 35.101562 C 43.789062 35.101562 48.824219 30.0625 48.824219 23.851562 C 48.824219 17.636719 43.789062 12.601562 37.574219 12.601562 Z M 37.574219 12.601562 " clip-rule="nonzero"/></clipPath></defs><g clip-path="url(#dff04b93f5)"><path fill="#c6d3c9" d="M 73.796875 37.421875 C 73.796875 38.609375 73.738281 39.792969 73.621094 40.972656 C 73.503906 42.152344 73.332031 43.324219 73.097656 44.488281 C 72.867188 45.652344 72.578125 46.800781 72.234375 47.9375 C 71.890625 49.074219 71.492188 50.1875 71.039062 51.285156 C 70.585938 52.378906 70.078125 53.453125 69.519531 54.496094 C 68.957031 55.542969 68.351562 56.558594 67.691406 57.546875 C 67.03125 58.535156 66.324219 59.484375 65.574219 60.402344 C 64.820312 61.320312 64.023438 62.195312 63.1875 63.035156 C 62.347656 63.875 61.46875 64.671875 60.550781 65.421875 C 59.636719 66.175781 58.683594 66.882812 57.695312 67.539062 C 56.710938 68.199219 55.695312 68.808594 54.648438 69.367188 C 53.601562 69.925781 52.53125 70.433594 51.433594 70.886719 C 50.339844 71.34375 49.222656 71.742188 48.085938 72.085938 C 46.953125 72.429688 45.804688 72.71875 44.640625 72.949219 C 43.476562 73.179688 42.304688 73.355469 41.125 73.472656 C 39.941406 73.585938 38.757812 73.644531 37.574219 73.644531 C 36.386719 73.644531 35.203125 73.585938 34.023438 73.472656 C 32.839844 73.355469 31.667969 73.179688 30.507812 72.949219 C 29.34375 72.71875 28.191406 72.429688 27.058594 72.085938 C 25.921875 71.742188 24.808594 71.34375 23.710938 70.886719 C 22.613281 70.433594 21.542969 69.925781 20.496094 69.367188 C 19.449219 68.808594 18.433594 68.199219 17.449219 67.539062 C 16.460938 66.882812 15.511719 66.175781 14.59375 65.421875 C 13.675781 64.671875 12.796875 63.875 11.960938 63.035156 C 11.121094 62.195312 10.324219 61.320312 9.570312 60.402344 C 8.820312 59.484375 8.113281 58.535156 7.453125 57.546875 C 6.796875 56.558594 6.1875 55.542969 5.628906 54.496094 C 5.066406 53.453125 4.5625 52.378906 4.105469 51.285156 C 3.652344 50.1875 3.253906 49.074219 2.910156 47.9375 C 2.566406 46.800781 2.277344 45.652344 2.046875 44.488281 C 1.816406 43.324219 1.640625 42.152344 1.523438 40.972656 C 1.40625 39.792969 1.351562 38.609375 1.351562 37.421875 C 1.351562 36.234375 1.40625 35.054688 1.523438 33.871094 C 1.640625 32.691406 1.816406 31.519531 2.046875 30.355469 C 2.277344 29.191406 2.566406 28.042969 2.910156 26.90625 C 3.253906 25.773438 3.652344 24.65625 4.105469 23.5625 C 4.5625 22.464844 5.066406 21.394531 5.628906 20.347656 C 6.1875 19.300781 6.796875 18.285156 7.453125 17.296875 C 8.113281 16.3125 8.820312 15.359375 9.570312 14.441406 C 10.324219 13.527344 11.121094 12.648438 11.960938 11.808594 C 12.796875 10.96875 13.675781 10.175781 14.59375 9.421875 C 15.511719 8.667969 16.460938 7.964844 17.449219 7.304688 C 18.433594 6.644531 19.449219 6.035156 20.496094 5.476562 C 21.542969 4.917969 22.613281 4.410156 23.710938 3.957031 C 24.808594 3.503906 25.921875 3.105469 27.058594 2.757812 C 28.191406 2.414062 29.34375 2.128906 30.507812 1.894531 C 31.667969 1.664062 32.839844 1.492188 34.023438 1.375 C 35.203125 1.257812 36.386719 1.199219 37.574219 1.199219 C 38.757812 1.199219 39.941406 1.257812 41.125 1.375 C 42.304688 1.492188 43.476562 1.664062 44.640625 1.894531 C 45.804688 2.128906 46.953125 2.414062 48.085938 2.757812 C 49.222656 3.105469 50.339844 3.503906 51.433594 3.957031 C 52.53125 4.410156 53.601562 4.917969 54.648438 5.476562 C 55.695312 6.035156 56.710938 6.644531 57.695312 7.304688 C 58.683594 7.964844 59.636719 8.667969 60.550781 9.421875 C 61.46875 10.175781 62.347656 10.96875 63.1875 11.808594 C 64.023438 12.648438 64.820312 13.527344 65.574219 14.441406 C 66.324219 15.359375 67.03125 16.3125 67.691406 17.296875 C 68.351562 18.285156 68.957031 19.300781 69.519531 20.347656 C 70.078125 21.394531 70.585938 22.464844 71.039062 23.5625 C 71.492188 24.65625 71.890625 25.773438 72.234375 26.90625 C 72.578125 28.042969 72.867188 29.191406 73.097656 30.355469 C 73.332031 31.519531 73.503906 32.691406 73.621094 33.871094 C 73.738281 35.054688 73.796875 36.234375 73.796875 37.421875 Z M 73.796875 37.421875 " fill-opacity="1" fill-rule="nonzero"/></g><path fill="#7e8e81" d="M 51.15625 23.839844 C 51.15625 24.730469 51.070312 25.613281 50.894531 26.488281 C 50.722656 27.363281 50.464844 28.214844 50.121094 29.039062 C 49.78125 29.863281 49.363281 30.644531 48.867188 31.386719 C 48.371094 32.128906 47.808594 32.8125 47.175781 33.445312 C 46.546875 34.074219 45.859375 34.636719 45.121094 35.132812 C 44.378906 35.628906 43.59375 36.046875 42.769531 36.386719 C 41.945312 36.730469 41.097656 36.988281 40.222656 37.160156 C 39.347656 37.335938 38.464844 37.421875 37.574219 37.421875 C 36.679688 37.421875 35.796875 37.335938 34.921875 37.160156 C 34.046875 36.988281 33.199219 36.730469 32.375 36.386719 C 31.550781 36.046875 30.769531 35.628906 30.027344 35.132812 C 29.285156 34.636719 28.597656 34.074219 27.96875 33.445312 C 27.335938 32.8125 26.773438 32.128906 26.277344 31.386719 C 25.78125 30.644531 25.363281 29.863281 25.023438 29.039062 C 24.683594 28.214844 24.425781 27.363281 24.25 26.488281 C 24.074219 25.613281 23.988281 24.730469 23.988281 23.839844 C 23.988281 22.945312 24.074219 22.0625 24.25 21.1875 C 24.425781 20.3125 24.683594 19.464844 25.023438 18.640625 C 25.363281 17.816406 25.78125 17.035156 26.277344 16.292969 C 26.773438 15.550781 27.335938 14.863281 27.96875 14.234375 C 28.597656 13.601562 29.285156 13.039062 30.027344 12.542969 C 30.769531 12.050781 31.550781 11.632812 32.375 11.289062 C 33.199219 10.949219 34.046875 10.691406 34.921875 10.515625 C 35.796875 10.34375 36.679688 10.253906 37.574219 10.253906 C 38.464844 10.253906 39.347656 10.34375 40.222656 10.515625 C 41.097656 10.691406 41.945312 10.949219 42.769531 11.289062 C 43.59375 11.632812 44.378906 12.050781 45.121094 12.542969 C 45.859375 13.039062 46.546875 13.601562 47.175781 14.234375 C 47.808594 14.863281 48.371094 15.550781 48.867188 16.292969 C 49.363281 17.035156 49.78125 17.816406 50.121094 18.640625 C 50.464844 19.464844 50.722656 20.3125 50.894531 21.1875 C 51.070312 22.0625 51.15625 22.945312 51.15625 23.839844 Z M 51.15625 23.839844 " fill-opacity="1" fill-rule="nonzero"/><g clip-path="url(#b550acf857)"><path fill="#7e8e81" d="M 37.574219 41.949219 C 24.320312 41.949219 12.71875 47.980469 7.164062 57.03125 C 7.570312 57.664062 7.996094 58.285156 8.441406 58.894531 C 8.886719 59.5 9.351562 60.09375 9.832031 60.671875 C 10.316406 61.25 10.816406 61.8125 11.335938 62.359375 C 11.851562 62.90625 12.386719 63.433594 12.9375 63.949219 C 13.488281 64.460938 14.054688 64.957031 14.636719 65.433594 C 15.21875 65.914062 15.816406 66.371094 16.425781 66.8125 C 17.039062 67.253906 17.664062 67.675781 18.300781 68.078125 C 18.9375 68.480469 19.585938 68.859375 20.246094 69.222656 C 20.90625 69.582031 21.578125 69.921875 22.261719 70.242188 C 22.941406 70.558594 23.636719 70.859375 24.335938 71.132812 C 25.035156 71.410156 25.746094 71.664062 26.460938 71.894531 C 27.179688 72.125 27.902344 72.335938 28.632812 72.523438 C 29.359375 72.707031 30.097656 72.871094 30.835938 73.011719 C 31.574219 73.152344 32.320312 73.269531 33.066406 73.363281 C 33.8125 73.457031 34.5625 73.527344 35.316406 73.574219 C 36.066406 73.621094 36.820312 73.644531 37.574219 73.644531 C 38.324219 73.644531 39.078125 73.621094 39.828125 73.574219 C 40.582031 73.527344 41.332031 73.457031 42.078125 73.363281 C 42.824219 73.269531 43.570312 73.152344 44.308594 73.011719 C 45.050781 72.871094 45.785156 72.707031 46.515625 72.523438 C 47.242188 72.335938 47.964844 72.125 48.683594 71.894531 C 49.398438 71.664062 50.109375 71.410156 50.808594 71.132812 C 51.511719 70.859375 52.203125 70.558594 52.882812 70.242188 C 53.566406 69.921875 54.238281 69.582031 54.898438 69.222656 C 55.558594 68.859375 56.207031 68.480469 56.847656 68.078125 C 57.484375 67.675781 58.105469 67.253906 58.71875 66.8125 C 59.328125 66.371094 59.925781 65.914062 60.507812 65.433594 C 61.089844 64.957031 61.65625 64.460938 62.207031 63.949219 C 62.757812 63.433594 63.292969 62.90625 63.808594 62.359375 C 64.328125 61.8125 64.828125 61.25 65.3125 60.671875 C 65.792969 60.09375 66.257812 59.5 66.703125 58.894531 C 67.148438 58.285156 67.578125 57.664062 67.984375 57.03125 C 62.425781 47.980469 50.824219 41.949219 37.574219 41.949219 Z M 37.574219 41.949219 " fill-opacity="1" fill-rule="nonzero"/></g><g clip-path="url(#c5fb711ec7)"><g clip-path="url(#9c9d8c27a2)"><path fill="#7e8e81" d="M 26.324219 12.601562 L 48.824219 12.601562 L 48.824219 35.101562 L 26.324219 35.101562 Z M 26.324219 12.601562 " fill-opacity="1" fill-rule="nonzero"/></g></g></svg>