<svg xmlns="http://www.w3.org/2000/svg" xmlns:xlink="http://www.w3.org/1999/xlink" width="250" zoomAndPan="magnify" viewBox="0 0 187.5 32.249999" height="43" preserveAspectRatio="xMidYMid meet" version="1.0"><defs><g/></defs><g fill="#000000" fill-opacity="1"><g transform="translate(9.005161, 24.842796)"><g><path d="M 10.703125 -2.828125 C 11.546875 -2.828125 12.347656 -2.988281 13.109375 -3.3125 C 13.867188 -3.632812 14.519531 -4.066406 15.0625 -4.609375 L 17.21875 -2.421875 C 16.394531 -1.597656 15.425781 -0.941406 14.3125 -0.453125 C 13.195312 0.0234375 11.992188 0.265625 10.703125 0.265625 C 9.441406 0.265625 8.25 0.046875 7.125 -0.390625 C 6 -0.835938 5.015625 -1.476562 4.171875 -2.3125 C 3.328125 -3.144531 2.660156 -4.144531 2.171875 -5.3125 C 1.691406 -6.476562 1.453125 -7.785156 1.453125 -9.234375 C 1.453125 -11.097656 1.847656 -12.738281 2.640625 -14.15625 C 3.429688 -15.582031 4.523438 -16.695312 5.921875 -17.5 C 7.316406 -18.3125 8.910156 -18.71875 10.703125 -18.71875 C 11.992188 -18.71875 13.195312 -18.476562 14.3125 -18 C 15.425781 -17.519531 16.394531 -16.859375 17.21875 -16.015625 L 15.0625 -13.84375 C 14.519531 -14.40625 13.867188 -14.84375 13.109375 -15.15625 C 12.347656 -15.476562 11.546875 -15.640625 10.703125 -15.640625 C 9.441406 -15.640625 8.351562 -15.363281 7.4375 -14.8125 C 6.519531 -14.257812 5.816406 -13.503906 5.328125 -12.546875 C 4.835938 -11.585938 4.59375 -10.484375 4.59375 -9.234375 C 4.59375 -7.910156 4.863281 -6.769531 5.40625 -5.8125 C 5.945312 -4.851562 6.679688 -4.113281 7.609375 -3.59375 C 8.546875 -3.082031 9.578125 -2.828125 10.703125 -2.828125 Z M 10.703125 -2.828125 "/></g></g></g><g fill="#000000" fill-opacity="1"><g transform="translate(26.114594, 24.842796)"><g><path d="M 8.359375 -5.015625 C 7.410156 -5.015625 6.519531 -5.191406 5.6875 -5.546875 C 4.863281 -5.910156 4.140625 -6.40625 3.515625 -7.03125 C 2.890625 -7.65625 2.394531 -8.378906 2.03125 -9.203125 C 1.675781 -10.023438 1.5 -10.914062 1.5 -11.875 C 1.5 -12.820312 1.675781 -13.707031 2.03125 -14.53125 C 2.394531 -15.351562 2.890625 -16.078125 3.515625 -16.703125 C 4.140625 -17.328125 4.863281 -17.816406 5.6875 -18.171875 C 6.519531 -18.535156 7.410156 -18.71875 8.359375 -18.71875 C 9.304688 -18.71875 10.191406 -18.535156 11.015625 -18.171875 C 11.847656 -17.816406 12.578125 -17.328125 13.203125 -16.703125 C 13.828125 -16.078125 14.316406 -15.351562 14.671875 -14.53125 C 15.035156 -13.707031 15.21875 -12.820312 15.21875 -11.875 C 15.21875 -10.914062 15.035156 -10.023438 14.671875 -9.203125 C 14.316406 -8.378906 13.828125 -7.65625 13.203125 -7.03125 C 12.578125 -6.40625 11.847656 -5.910156 11.015625 -5.546875 C 10.191406 -5.191406 9.304688 -5.015625 8.359375 -5.015625 Z M 8.359375 -15.671875 C 7.660156 -15.671875 7.023438 -15.5 6.453125 -15.15625 C 5.878906 -14.8125 5.421875 -14.351562 5.078125 -13.78125 C 4.734375 -13.207031 4.5625 -12.570312 4.5625 -11.875 C 4.5625 -11.164062 4.734375 -10.523438 5.078125 -9.953125 C 5.421875 -9.378906 5.878906 -8.921875 6.453125 -8.578125 C 7.023438 -8.242188 7.660156 -8.078125 8.359375 -8.078125 C 9.066406 -8.078125 9.703125 -8.242188 10.265625 -8.578125 C 10.835938 -8.921875 11.296875 -9.378906 11.640625 -9.953125 C 11.984375 -10.523438 12.15625 -11.164062 12.15625 -11.875 C 12.15625 -12.570312 11.984375 -13.207031 11.640625 -13.78125 C 11.296875 -14.351562 10.835938 -14.8125 10.265625 -15.15625 C 9.703125 -15.5 9.066406 -15.671875 8.359375 -15.671875 Z M 14.375 0 L 2.1875 0 L 2.1875 -3.0625 L 14.375 -3.0625 Z M 14.375 0 "/></g></g></g><g fill="#000000" fill-opacity="1"><g transform="translate(41.747674, 24.842796)"><g><path d="M 5.171875 -18.46875 C 6.066406 -18.46875 7.007812 -18.40625 8 -18.28125 C 9 -18.15625 9.96875 -17.914062 10.90625 -17.5625 C 11.84375 -17.207031 12.6875 -16.691406 13.4375 -16.015625 C 14.195312 -15.335938 14.804688 -14.445312 15.265625 -13.34375 C 15.722656 -12.238281 15.953125 -10.867188 15.953125 -9.234375 C 15.953125 -7.648438 15.726562 -6.316406 15.28125 -5.234375 C 14.832031 -4.148438 14.226562 -3.257812 13.46875 -2.5625 C 12.71875 -1.875 11.875 -1.34375 10.9375 -0.96875 C 10.007812 -0.601562 9.046875 -0.347656 8.046875 -0.203125 C 7.046875 -0.0664062 6.085938 0 5.171875 0 L 2.078125 0 L 2.078125 -18.46875 Z M 5.171875 -3 C 5.171875 -3 5.351562 -2.984375 5.71875 -2.953125 C 6.09375 -2.929688 6.566406 -2.945312 7.140625 -3 C 7.722656 -3.050781 8.34375 -3.175781 9 -3.375 C 9.664062 -3.582031 10.285156 -3.914062 10.859375 -4.375 C 11.441406 -4.832031 11.914062 -5.453125 12.28125 -6.234375 C 12.65625 -7.015625 12.84375 -8.015625 12.84375 -9.234375 C 12.84375 -10.460938 12.65625 -11.472656 12.28125 -12.265625 C 11.914062 -13.054688 11.441406 -13.679688 10.859375 -14.140625 C 10.285156 -14.597656 9.664062 -14.921875 9 -15.109375 C 8.34375 -15.304688 7.722656 -15.425781 7.140625 -15.46875 C 6.566406 -15.507812 6.09375 -15.515625 5.71875 -15.484375 C 5.351562 -15.460938 5.171875 -15.453125 5.171875 -15.453125 Z M 5.171875 -3 "/></g></g></g><g fill="#000000" fill-opacity="1"><g transform="translate(58.013474, 24.842796)"><g><path d="M 5.171875 -15.375 L 5.171875 -10.765625 L 12.84375 -10.765625 L 12.84375 -7.703125 L 5.171875 -7.703125 L 5.171875 -3.078125 L 14.40625 -3.078125 L 14.40625 0 L 2.078125 0 L 2.078125 -18.46875 L 14.40625 -18.46875 L 14.40625 -15.375 Z M 5.171875 -15.375 "/></g></g></g><g fill="#000000" fill-opacity="1"><g transform="translate(72.328376, 24.842796)"><g/></g></g><g fill="#8dcc3d" fill-opacity="1"><g transform="translate(80.239175, 24.842796)"><g><path d="M 18.46875 -10.5 L 18.46875 0.078125 L 15.765625 0.078125 L 15.609375 -1.65625 C 14.859375 -0.957031 14.066406 -0.460938 13.234375 -0.171875 C 12.410156 0.117188 11.453125 0.265625 10.359375 0.265625 C 8.710938 0.265625 7.21875 -0.109375 5.875 -0.859375 C 4.539062 -1.609375 3.484375 -2.6875 2.703125 -4.09375 C 1.921875 -5.507812 1.53125 -7.222656 1.53125 -9.234375 C 1.53125 -10.597656 1.765625 -11.859375 2.234375 -13.015625 C 2.710938 -14.179688 3.378906 -15.191406 4.234375 -16.046875 C 5.085938 -16.898438 6.070312 -17.554688 7.1875 -18.015625 C 8.300781 -18.484375 9.492188 -18.71875 10.765625 -18.71875 C 12.046875 -18.71875 13.242188 -18.476562 14.359375 -18 C 15.472656 -17.519531 16.445312 -16.859375 17.28125 -16.015625 L 15.109375 -13.84375 C 14.566406 -14.40625 13.914062 -14.84375 13.15625 -15.15625 C 12.40625 -15.476562 11.609375 -15.640625 10.765625 -15.640625 C 9.640625 -15.640625 8.609375 -15.382812 7.671875 -14.875 C 6.742188 -14.363281 6 -13.632812 5.4375 -12.6875 C 4.882812 -11.738281 4.609375 -10.585938 4.609375 -9.234375 C 4.609375 -7.734375 4.882812 -6.507812 5.4375 -5.5625 C 6 -4.613281 6.742188 -3.921875 7.671875 -3.484375 C 8.609375 -3.046875 9.640625 -2.828125 10.765625 -2.828125 C 11.691406 -2.828125 12.550781 -3.007812 13.34375 -3.375 C 14.132812 -3.75 14.8125 -4.257812 15.375 -4.90625 L 15.375 -7.5625 L 12.296875 -7.5625 L 12.296875 -10.5 Z M 18.46875 -10.5 "/></g></g></g><g fill="#8dcc3d" fill-opacity="1"><g transform="translate(99.431316, 24.842796)"><g><path d="M 10.609375 -2.140625 L 4.109375 -2.140625 L 3.328125 0 L 0 0 L 7.359375 -18.984375 L 14.75 0 L 11.421875 0 Z M 5.109375 -4.796875 L 9.59375 -4.796875 L 7.359375 -11.203125 Z M 5.109375 -4.796875 "/></g></g></g><g fill="#8dcc3d" fill-opacity="1"><g transform="translate(112.981677, 24.842796)"><g><path d="M 11.765625 0 L 6.96875 -7.703125 L 5.203125 -7.703125 L 5.203125 0 L 2.109375 0 L 2.109375 -10.765625 L 5.03125 -10.765625 L 2.109375 -15.375 L 2.109375 -18.46875 L 8.25 -18.46875 C 8.25 -18.46875 8.398438 -18.457031 8.703125 -18.4375 C 9.003906 -18.414062 9.382812 -18.359375 9.84375 -18.265625 C 10.3125 -18.171875 10.804688 -18.007812 11.328125 -17.78125 C 11.859375 -17.5625 12.359375 -17.253906 12.828125 -16.859375 C 13.296875 -16.460938 13.675781 -15.957031 13.96875 -15.34375 C 14.269531 -14.726562 14.421875 -13.972656 14.421875 -13.078125 C 14.421875 -11.992188 14.207031 -11.109375 13.78125 -10.421875 C 13.351562 -9.734375 12.828125 -9.203125 12.203125 -8.828125 C 11.578125 -8.460938 10.960938 -8.191406 10.359375 -8.015625 L 15.375 0 Z M 8.65625 -10.78125 C 8.9375 -10.820312 9.285156 -10.898438 9.703125 -11.015625 C 10.128906 -11.140625 10.507812 -11.363281 10.84375 -11.6875 C 11.175781 -12.019531 11.34375 -12.484375 11.34375 -13.078125 C 11.34375 -13.660156 11.1875 -14.101562 10.875 -14.40625 C 10.570312 -14.71875 10.210938 -14.941406 9.796875 -15.078125 C 9.378906 -15.222656 9.015625 -15.304688 8.703125 -15.328125 C 8.398438 -15.359375 8.25 -15.375 8.25 -15.375 L 5.78125 -15.375 Z M 8.65625 -10.78125 "/></g></g></g><g fill="#8dcc3d" fill-opacity="1"><g transform="translate(127.929298, 24.842796)"><g><path d="M 5.171875 -18.46875 C 6.066406 -18.46875 7.007812 -18.40625 8 -18.28125 C 9 -18.15625 9.96875 -17.914062 10.90625 -17.5625 C 11.84375 -17.207031 12.6875 -16.691406 13.4375 -16.015625 C 14.195312 -15.335938 14.804688 -14.445312 15.265625 -13.34375 C 15.722656 -12.238281 15.953125 -10.867188 15.953125 -9.234375 C 15.953125 -7.648438 15.726562 -6.316406 15.28125 -5.234375 C 14.832031 -4.148438 14.226562 -3.257812 13.46875 -2.5625 C 12.71875 -1.875 11.875 -1.34375 10.9375 -0.96875 C 10.007812 -0.601562 9.046875 -0.347656 8.046875 -0.203125 C 7.046875 -0.0664062 6.085938 0 5.171875 0 L 2.078125 0 L 2.078125 -18.46875 Z M 5.171875 -3 C 5.171875 -3 5.351562 -2.984375 5.71875 -2.953125 C 6.09375 -2.929688 6.566406 -2.945312 7.140625 -3 C 7.722656 -3.050781 8.34375 -3.175781 9 -3.375 C 9.664062 -3.582031 10.285156 -3.914062 10.859375 -4.375 C 11.441406 -4.832031 11.914062 -5.453125 12.28125 -6.234375 C 12.65625 -7.015625 12.84375 -8.015625 12.84375 -9.234375 C 12.84375 -10.460938 12.65625 -11.472656 12.28125 -12.265625 C 11.914062 -13.054688 11.441406 -13.679688 10.859375 -14.140625 C 10.285156 -14.597656 9.664062 -14.921875 9 -15.109375 C 8.34375 -15.304688 7.722656 -15.425781 7.140625 -15.46875 C 6.566406 -15.507812 6.09375 -15.515625 5.71875 -15.484375 C 5.351562 -15.460938 5.171875 -15.453125 5.171875 -15.453125 Z M 5.171875 -3 "/></g></g></g><g fill="#8dcc3d" fill-opacity="1"><g transform="translate(144.195103, 24.842796)"><g><path d="M 5.171875 -15.375 L 5.171875 -10.765625 L 12.84375 -10.765625 L 12.84375 -7.703125 L 5.171875 -7.703125 L 5.171875 -3.078125 L 14.40625 -3.078125 L 14.40625 0 L 2.078125 0 L 2.078125 -18.46875 L 14.40625 -18.46875 L 14.40625 -15.375 Z M 5.171875 -15.375 "/></g></g></g><g fill="#8dcc3d" fill-opacity="1"><g transform="translate(158.510005, 24.842796)"><g><path d="M 17.453125 0 L 14.34375 0 L 5.171875 -13.140625 L 5.171875 0 L 2.078125 0 L 2.078125 -18.46875 L 5.203125 -18.46875 L 14.40625 -5.328125 L 14.40625 -18.46875 L 17.453125 -18.46875 Z M 17.453125 0 "/></g></g></g></svg>