<svg xmlns="http://www.w3.org/2000/svg" xmlns:xlink="http://www.w3.org/1999/xlink" width="533" zoomAndPan="magnify" viewBox="0 0 399.75 137.249994" height="183" preserveAspectRatio="xMidYMid meet" version="1.0"><defs><g/></defs><g fill="#8dcc3d" fill-opacity="1"><g transform="translate(87.046025, 104.894876)"><g><path d="M 37.46875 -21.3125 L 37.46875 0.15625 L 32.015625 0.15625 L 31.6875 -3.375 C 30.15625 -1.945312 28.550781 -0.9375 26.875 -0.34375 C 25.195312 0.238281 23.25 0.53125 21.03125 0.53125 C 17.675781 0.53125 14.644531 -0.222656 11.9375 -1.734375 C 9.226562 -3.253906 7.078125 -5.453125 5.484375 -8.328125 C 3.898438 -11.203125 3.109375 -14.671875 3.109375 -18.734375 C 3.109375 -21.515625 3.585938 -24.082031 4.546875 -26.4375 C 5.515625 -28.800781 6.863281 -30.847656 8.59375 -32.578125 C 10.320312 -34.304688 12.316406 -35.640625 14.578125 -36.578125 C 16.847656 -37.523438 19.269531 -38 21.84375 -38 C 24.445312 -38 26.878906 -37.507812 29.140625 -36.53125 C 31.410156 -35.550781 33.382812 -34.207031 35.0625 -32.5 L 30.671875 -28.109375 C 29.566406 -29.242188 28.242188 -30.132812 26.703125 -30.78125 C 25.171875 -31.425781 23.550781 -31.75 21.84375 -31.75 C 19.5625 -31.75 17.472656 -31.226562 15.578125 -30.1875 C 13.679688 -29.15625 12.171875 -27.675781 11.046875 -25.75 C 9.929688 -23.820312 9.375 -21.484375 9.375 -18.734375 C 9.375 -15.703125 9.929688 -13.222656 11.046875 -11.296875 C 12.171875 -9.367188 13.679688 -7.957031 15.578125 -7.0625 C 17.472656 -6.175781 19.5625 -5.734375 21.84375 -5.734375 C 23.726562 -5.734375 25.472656 -6.101562 27.078125 -6.84375 C 28.691406 -7.59375 30.066406 -8.628906 31.203125 -9.953125 L 31.203125 -15.359375 L 24.953125 -15.359375 L 24.953125 -21.3125 Z M 37.46875 -21.3125 "/></g></g></g><g fill="#8dcc3d" fill-opacity="1"><g transform="translate(131.260393, 104.894876)"><g><path d="M 21.515625 -4.34375 L 8.34375 -4.34375 L 6.75 0 L 0 0 L 14.9375 -38.546875 L 29.921875 0 L 23.171875 0 Z M 10.390625 -9.75 L 19.484375 -9.75 L 14.9375 -22.75 Z M 10.390625 -9.75 "/></g></g></g><g fill="#8dcc3d" fill-opacity="1"><g transform="translate(164.0198, 104.894876)"><g><path d="M 23.875 0 L 14.125 -15.625 L 10.546875 -15.625 L 10.546875 0 L 4.28125 0 L 4.28125 -21.84375 L 10.21875 -21.84375 L 4.28125 -31.203125 L 4.28125 -37.46875 L 16.75 -37.46875 C 16.75 -37.46875 17.050781 -37.445312 17.65625 -37.40625 C 18.269531 -37.375 19.046875 -37.257812 19.984375 -37.0625 C 20.929688 -36.875 21.941406 -36.554688 23.015625 -36.109375 C 24.085938 -35.660156 25.097656 -35.035156 26.046875 -34.234375 C 26.992188 -33.429688 27.769531 -32.40625 28.375 -31.15625 C 28.976562 -29.90625 29.28125 -28.367188 29.28125 -26.546875 C 29.28125 -24.335938 28.84375 -22.535156 27.96875 -21.140625 C 27.09375 -19.753906 26.019531 -18.6875 24.75 -17.9375 C 23.488281 -17.1875 22.25 -16.632812 21.03125 -16.28125 L 31.203125 0 Z M 17.5625 -21.890625 C 18.132812 -21.960938 18.847656 -22.125 19.703125 -22.375 C 20.554688 -22.625 21.320312 -23.078125 22 -23.734375 C 22.675781 -24.398438 23.015625 -25.335938 23.015625 -26.546875 C 23.015625 -27.722656 22.703125 -28.625 22.078125 -29.25 C 21.453125 -29.875 20.71875 -30.328125 19.875 -30.609375 C 19.039062 -30.898438 18.3125 -31.070312 17.6875 -31.125 C 17.0625 -31.175781 16.75 -31.203125 16.75 -31.203125 L 11.71875 -31.203125 Z M 17.5625 -21.890625 "/></g></g></g><g fill="#8dcc3d" fill-opacity="1"><g transform="translate(199.61618, 104.894876)"><g><path d="M 10.484375 -37.46875 C 12.304688 -37.46875 14.222656 -37.34375 16.234375 -37.09375 C 18.253906 -36.84375 20.21875 -36.359375 22.125 -35.640625 C 24.039062 -34.929688 25.765625 -33.890625 27.296875 -32.515625 C 28.835938 -31.140625 30.070312 -29.328125 31 -27.078125 C 31.925781 -24.835938 32.390625 -22.054688 32.390625 -18.734375 C 32.390625 -15.523438 31.929688 -12.820312 31.015625 -10.625 C 30.109375 -8.425781 28.882812 -6.625 27.34375 -5.21875 C 25.8125 -3.8125 24.097656 -2.734375 22.203125 -1.984375 C 20.316406 -1.234375 18.359375 -0.710938 16.328125 -0.421875 C 14.296875 -0.140625 12.347656 0 10.484375 0 L 4.234375 0 L 4.234375 -37.46875 Z M 10.484375 -6.109375 C 10.484375 -6.109375 10.859375 -6.078125 11.609375 -6.015625 C 12.359375 -5.960938 13.320312 -5.988281 14.5 -6.09375 C 15.6875 -6.207031 16.945312 -6.46875 18.28125 -6.875 C 19.613281 -7.289062 20.867188 -7.960938 22.046875 -8.890625 C 23.234375 -9.816406 24.195312 -11.070312 24.9375 -12.65625 C 25.6875 -14.25 26.0625 -16.273438 26.0625 -18.734375 C 26.0625 -21.234375 25.6875 -23.285156 24.9375 -24.890625 C 24.195312 -26.492188 23.234375 -27.757812 22.046875 -28.6875 C 20.867188 -29.613281 19.613281 -30.273438 18.28125 -30.671875 C 16.945312 -31.066406 15.6875 -31.304688 14.5 -31.390625 C 13.320312 -31.484375 12.359375 -31.503906 11.609375 -31.453125 C 10.859375 -31.398438 10.484375 -31.375 10.484375 -31.375 Z M 10.484375 -6.109375 "/></g></g></g><g fill="#8dcc3d" fill-opacity="1"><g transform="translate(237.888955, 104.894876)"><g><path d="M 10.484375 -31.203125 L 10.484375 -21.84375 L 26.0625 -21.84375 L 26.0625 -15.625 L 10.484375 -15.625 L 10.484375 -6.265625 L 29.234375 -6.265625 L 29.234375 0 L 4.234375 0 L 4.234375 -37.46875 L 29.234375 -37.46875 L 29.234375 -31.203125 Z M 10.484375 -31.203125 "/></g></g></g><g fill="#8dcc3d" fill-opacity="1"><g transform="translate(272.200674, 104.894876)"><g><path d="M 35.4375 0 L 29.125 0 L 10.484375 -26.65625 L 10.484375 0 L 4.234375 0 L 4.234375 -37.46875 L 10.546875 -37.46875 L 29.234375 -10.8125 L 29.234375 -37.46875 L 35.4375 -37.46875 Z M 35.4375 0 "/></g></g></g><g fill="#000000" fill-opacity="1"><g transform="translate(158.755177, 63.724101)"><g><path d="M 22.46875 -5.921875 C 24.25 -5.921875 25.929688 -6.257812 27.515625 -6.9375 C 29.097656 -7.625 30.460938 -8.539062 31.609375 -9.6875 L 36.15625 -5.09375 C 34.414062 -3.351562 32.375 -1.976562 30.03125 -0.96875 C 27.6875 0.0390625 25.164062 0.546875 22.46875 0.546875 C 19.8125 0.546875 17.300781 0.0859375 14.9375 -0.828125 C 12.582031 -1.753906 10.519531 -3.09375 8.75 -4.84375 C 6.976562 -6.59375 5.582031 -8.695312 4.5625 -11.15625 C 3.550781 -13.613281 3.046875 -16.351562 3.046875 -19.375 C 3.046875 -23.289062 3.875 -26.742188 5.53125 -29.734375 C 7.195312 -32.722656 9.492188 -35.066406 12.421875 -36.765625 C 15.359375 -38.460938 18.707031 -39.3125 22.46875 -39.3125 C 25.164062 -39.3125 27.6875 -38.800781 30.03125 -37.78125 C 32.375 -36.769531 34.414062 -35.378906 36.15625 -33.609375 L 31.609375 -29.0625 C 30.460938 -30.238281 29.097656 -31.160156 27.515625 -31.828125 C 25.929688 -32.492188 24.25 -32.828125 22.46875 -32.828125 C 19.8125 -32.828125 17.523438 -32.242188 15.609375 -31.078125 C 13.691406 -29.921875 12.210938 -28.335938 11.171875 -26.328125 C 10.140625 -24.316406 9.625 -22 9.625 -19.375 C 9.625 -16.601562 10.195312 -14.210938 11.34375 -12.203125 C 12.488281 -10.191406 14.039062 -8.640625 16 -7.546875 C 17.957031 -6.460938 20.113281 -5.921875 22.46875 -5.921875 Z M 22.46875 -5.921875 "/></g></g></g><g fill="#000000" fill-opacity="1"><g transform="translate(200.105259, 63.724101)"><g><path d="M 17.546875 -10.515625 C 15.554688 -10.515625 13.691406 -10.890625 11.953125 -11.640625 C 10.222656 -12.398438 8.703125 -13.4375 7.390625 -14.75 C 6.078125 -16.0625 5.039062 -17.582031 4.28125 -19.3125 C 3.53125 -21.050781 3.15625 -22.914062 3.15625 -24.90625 C 3.15625 -26.90625 3.53125 -28.769531 4.28125 -30.5 C 5.039062 -32.238281 6.078125 -33.757812 7.390625 -35.0625 C 8.703125 -36.375 10.222656 -37.410156 11.953125 -38.171875 C 13.691406 -38.929688 15.554688 -39.3125 17.546875 -39.3125 C 19.535156 -39.3125 21.394531 -38.929688 23.125 -38.171875 C 24.863281 -37.410156 26.390625 -36.375 27.703125 -35.0625 C 29.015625 -33.757812 30.046875 -32.238281 30.796875 -30.5 C 31.554688 -28.769531 31.9375 -26.90625 31.9375 -24.90625 C 31.9375 -22.914062 31.554688 -21.050781 30.796875 -19.3125 C 30.046875 -17.582031 29.015625 -16.0625 27.703125 -14.75 C 26.390625 -13.4375 24.863281 -12.398438 23.125 -11.640625 C 21.394531 -10.890625 19.535156 -10.515625 17.546875 -10.515625 Z M 17.546875 -32.890625 C 16.066406 -32.890625 14.726562 -32.523438 13.53125 -31.796875 C 12.332031 -31.078125 11.375 -30.117188 10.65625 -28.921875 C 9.9375 -27.722656 9.578125 -26.382812 9.578125 -24.90625 C 9.578125 -23.4375 9.9375 -22.097656 10.65625 -20.890625 C 11.375 -19.691406 12.332031 -18.734375 13.53125 -18.015625 C 14.726562 -17.296875 16.066406 -16.9375 17.546875 -16.9375 C 19.023438 -16.9375 20.363281 -17.296875 21.5625 -18.015625 C 22.757812 -18.734375 23.71875 -19.691406 24.4375 -20.890625 C 25.15625 -22.097656 25.515625 -23.4375 25.515625 -24.90625 C 25.515625 -26.382812 25.15625 -27.722656 24.4375 -28.921875 C 23.71875 -30.117188 22.757812 -31.078125 21.5625 -31.796875 C 20.363281 -32.523438 19.023438 -32.890625 17.546875 -32.890625 Z M 30.171875 0 L 4.59375 0 L 4.59375 -6.421875 L 30.171875 -6.421875 Z M 30.171875 0 "/></g></g></g><g fill="#000000" fill-opacity="1"><g transform="translate(238.35552, 63.724101)"><g><path d="M 10.84375 -38.75 C 12.726562 -38.75 14.710938 -38.617188 16.796875 -38.359375 C 18.878906 -38.097656 20.910156 -37.597656 22.890625 -36.859375 C 24.867188 -36.128906 26.648438 -35.050781 28.234375 -33.625 C 29.816406 -32.207031 31.085938 -30.335938 32.046875 -28.015625 C 33.015625 -25.691406 33.5 -22.8125 33.5 -19.375 C 33.5 -16.050781 33.023438 -13.253906 32.078125 -10.984375 C 31.140625 -8.710938 29.875 -6.847656 28.28125 -5.390625 C 26.695312 -3.929688 24.925781 -2.816406 22.96875 -2.046875 C 21.019531 -1.273438 18.992188 -0.738281 16.890625 -0.4375 C 14.785156 -0.144531 12.769531 0 10.84375 0 L 4.375 0 L 4.375 -38.75 Z M 10.84375 -6.3125 C 10.84375 -6.3125 11.226562 -6.28125 12 -6.21875 C 12.78125 -6.164062 13.78125 -6.195312 15 -6.3125 C 16.21875 -6.425781 17.519531 -6.691406 18.90625 -7.109375 C 20.289062 -7.535156 21.59375 -8.226562 22.8125 -9.1875 C 24.03125 -10.144531 25.023438 -11.445312 25.796875 -13.09375 C 26.566406 -14.738281 26.953125 -16.832031 26.953125 -19.375 C 26.953125 -21.957031 26.566406 -24.078125 25.796875 -25.734375 C 25.023438 -27.398438 24.03125 -28.710938 22.8125 -29.671875 C 21.59375 -30.628906 20.289062 -31.3125 18.90625 -31.71875 C 17.519531 -32.125 16.21875 -32.375 15 -32.46875 C 13.78125 -32.5625 12.78125 -32.578125 12 -32.515625 C 11.226562 -32.460938 10.84375 -32.4375 10.84375 -32.4375 Z M 10.84375 -6.3125 "/></g></g></g><g fill="#000000" fill-opacity="1"><g transform="translate(277.934276, 63.724101)"><g><path d="M 10.84375 -32.28125 L 10.84375 -22.59375 L 26.953125 -22.59375 L 26.953125 -16.171875 L 10.84375 -16.171875 L 10.84375 -6.484375 L 30.21875 -6.484375 L 30.21875 0 L 4.375 0 L 4.375 -38.75 L 30.21875 -38.75 L 30.21875 -32.28125 Z M 10.84375 -32.28125 "/></g></g></g><g fill="#000000" fill-opacity="1"><g transform="translate(89.970654, 64.493076)"><g><path d="M 18.703125 -30.71875 L 9.28125 -20.765625 L 18.703125 -10.921875 L 14.625 -6.671875 L 1.28125 -20.765625 L 14.625 -34.90625 Z M 18.703125 -30.71875 "/></g></g></g><g fill="#000000" fill-opacity="1"><g transform="translate(105.025722, 64.493076)"><g/></g></g><g fill="#000000" fill-opacity="1"><g transform="translate(119.835617, 64.493076)"><g/></g></g><g fill="#000000" fill-opacity="1"><g transform="translate(134.65525, 64.493076)"><g><path d="M 6.375 -34.90625 L 19.734375 -20.765625 L 6.375 -6.671875 L 2.3125 -10.921875 L 11.71875 -20.765625 L 2.3125 -30.71875 Z M 6.375 -34.90625 "/></g></g></g><g fill="#000000" fill-opacity="1"><g transform="translate(113.964977, 57.842561)"><g><path d="M 17.125 -27.421875 C 17.25 -27.421875 17.34375 -27.378906 17.40625 -27.296875 C 17.476562 -27.222656 17.488281 -27.117188 17.4375 -26.984375 L 4.890625 -0.15625 C 4.835938 -0.0195312 4.722656 0.046875 4.546875 0.046875 L 0.078125 0.046875 C -0.0546875 0.046875 -0.15625 0 -0.21875 -0.09375 C -0.28125 -0.1875 -0.285156 -0.285156 -0.234375 -0.390625 L 12.1875 -27.21875 C 12.257812 -27.351562 12.375 -27.421875 12.53125 -27.421875 Z M 17.125 -27.421875 "/></g></g></g></svg>