<svg width="45" height="45" viewBox="0 0 45 45" fill="none" xmlns="http://www.w3.org/2000/svg">
<circle cx="22.5" cy="22.5" r="22.5" fill="white"/>
<path d="M10.8334 32.7084V29.7917H13.75V19.5834C13.75 17.5661 14.3577 15.7796 15.573 14.224C16.7882 12.6442 18.3681 11.6112 20.3125 11.1251V10.1042C20.3125 9.49661 20.5191 8.98619 20.9323 8.573C21.3698 8.1355 21.8924 7.91675 22.5 7.91675C23.1077 7.91675 23.6181 8.1355 24.0313 8.573C24.4688 8.98619 24.6875 9.49661 24.6875 10.1042V11.1251C26.632 11.6112 28.2118 12.6442 29.4271 14.224C30.6424 15.7796 31.25 17.5661 31.25 19.5834V29.7917H34.1667V32.7084H10.8334ZM22.5 37.0834C21.698 37.0834 21.0052 36.8039 20.4219 36.2449C19.8629 35.6615 19.5834 34.9688 19.5834 34.1667H25.4167C25.4167 34.9688 25.125 35.6615 24.5417 36.2449C23.9827 36.8039 23.3021 37.0834 22.5 37.0834ZM16.6667 29.7917H28.3334V19.5834C28.3334 17.9792 27.7622 16.606 26.6198 15.4636C25.4775 14.3213 24.1042 13.7501 22.5 13.7501C20.8959 13.7501 19.5226 14.3213 18.3802 15.4636C17.2379 16.606 16.6667 17.9792 16.6667 19.5834V29.7917Z" fill="#AEAEB2"/>
</svg>
