<svg width="35" height="35" viewBox="0 0 35 35" fill="none" xmlns="http://www.w3.org/2000/svg">
<path d="M5.83331 27.7084V24.7917H8.74998V14.5834C8.74998 12.566 9.35762 10.7795 10.5729 9.22398C11.7882 7.64412 13.368 6.61113 15.3125 6.12502V5.10419C15.3125 4.49655 15.5191 3.98613 15.9323 3.57294C16.3698 3.13544 16.8923 2.91669 17.5 2.91669C18.1076 2.91669 18.618 3.13544 19.0312 3.57294C19.4687 3.98613 19.6875 4.49655 19.6875 5.10419V6.12502C21.6319 6.61113 23.2118 7.64412 24.4271 9.22398C25.6423 10.7795 26.25 12.566 26.25 14.5834V24.7917H29.1666V27.7084H5.83331ZM17.5 32.0834C16.6979 32.0834 16.0052 31.8038 15.4219 31.2448C14.8628 30.6615 14.5833 29.9688 14.5833 29.1667H20.4166C20.4166 29.9688 20.125 30.6615 19.5416 31.2448C18.9826 31.8038 18.3021 32.0834 17.5 32.0834ZM11.6666 24.7917H23.3333V14.5834C23.3333 12.9792 22.7621 11.6059 21.6198 10.4636C20.4774 9.3212 19.1041 8.75002 17.5 8.75002C15.8958 8.75002 14.5225 9.3212 13.3802 10.4636C12.2378 11.6059 11.6666 12.9792 11.6666 14.5834V24.7917Z" fill="#AEAEB2"/>
</svg>
