<svg width="45" height="45" viewBox="0 0 45 45" fill="none" xmlns="http://www.w3.org/2000/svg">
<circle cx="22.5" cy="22.5" r="22.5" fill="#C6D3C9"/>
<path d="M10.8333 32.7084V29.7917H13.7499V19.5834C13.7499 17.5661 14.3576 15.7796 15.5728 14.224C16.7881 12.6442 18.368 11.6112 20.3124 11.1251V10.1042C20.3124 9.49661 20.519 8.98619 20.9322 8.573C21.3697 8.1355 21.8923 7.91675 22.4999 7.91675C23.1076 7.91675 23.618 8.1355 24.0312 8.573C24.4687 8.98619 24.6874 9.49661 24.6874 10.1042V11.1251C26.6319 11.6112 28.2117 12.6442 29.427 14.224C30.6423 15.7796 31.2499 17.5661 31.2499 19.5834V29.7917H34.1666V32.7084H10.8333ZM22.4999 37.0834C21.6978 37.0834 21.0051 36.8039 20.4218 36.2449C19.8628 35.6615 19.5833 34.9688 19.5833 34.1667H25.4166C25.4166 34.9688 25.1249 35.6615 24.5416 36.2449C23.9826 36.8039 23.302 37.0834 22.4999 37.0834ZM16.6666 29.7917H28.3333V19.5834C28.3333 17.9792 27.7621 16.606 26.6197 15.4636C25.4773 14.3213 24.1041 13.7501 22.4999 13.7501C20.8958 13.7501 19.5225 14.3213 18.3801 15.4636C17.2378 16.606 16.6666 17.9792 16.6666 19.5834V29.7917Z" fill="white"/>
</svg>
