<svg width="45" height="45" viewBox="0 0 45 45" fill="none" xmlns="http://www.w3.org/2000/svg">
<circle cx="22.5" cy="22.5" r="22.5" fill="white"/>
<path d="M28.294 30.8354V29.1413C28.294 28.2427 27.9371 27.3809 27.3016 26.7455C26.6662 26.1101 25.8044 25.7531 24.9058 25.7531H18.1293C17.2307 25.7531 16.3689 26.1101 15.7335 26.7455C15.0981 27.3809 14.7411 28.2427 14.7411 29.1413V30.8354M24.9058 18.9766C24.9058 20.8479 23.3888 22.3648 21.5176 22.3648C19.6463 22.3648 18.1293 20.8479 18.1293 18.9766C18.1293 17.1053 19.6463 15.5884 21.5176 15.5884C23.3888 15.5884 24.9058 17.1053 24.9058 18.9766Z" stroke="#AEAEB2" stroke-width="3" stroke-linecap="round" stroke-linejoin="round"/>
<path d="M36.5 36.5L29.975 29.975M33.5 21.5C33.5 28.1274 28.1274 33.5 21.5 33.5C14.8726 33.5 9.5 28.1274 9.5 21.5C9.5 14.8726 14.8726 9.5 21.5 9.5C28.1274 9.5 33.5 14.8726 33.5 21.5Z" stroke="#AEAEB2" stroke-width="3" stroke-linecap="round" stroke-linejoin="round"/>
</svg>
