<svg width="40" height="40" viewBox="0 0 40 40" fill="none" xmlns="http://www.w3.org/2000/svg">
<path d="M25.8823 28.7058V26.8235C25.8823 25.825 25.4857 24.8674 24.7797 24.1614C24.0736 23.4554 23.1161 23.0588 22.1176 23.0588H14.5882C13.5897 23.0588 12.6322 23.4554 11.9261 24.1614C11.2201 24.8674 10.8235 25.825 10.8235 26.8235V28.7058M22.1176 15.5294C22.1176 17.6085 20.4321 19.2941 18.3529 19.2941C16.2737 19.2941 14.5882 17.6085 14.5882 15.5294C14.5882 13.4502 16.2737 11.7646 18.3529 11.7646C20.4321 11.7646 22.1176 13.4502 22.1176 15.5294Z" stroke="#AEAEB2" stroke-width="3" stroke-linecap="round" stroke-linejoin="round"/>
<path d="M35 35L27.75 27.75M31.6667 18.3333C31.6667 25.6971 25.6971 31.6667 18.3333 31.6667C10.9695 31.6667 5 25.6971 5 18.3333C5 10.9695 10.9695 5 18.3333 5C25.6971 5 31.6667 10.9695 31.6667 18.3333Z" stroke="#AEAEB2" stroke-width="3" stroke-linecap="round" stroke-linejoin="round"/>
</svg>
