<svg width="35" height="35" viewBox="0 0 35 35" fill="none" xmlns="http://www.w3.org/2000/svg">
<g clip-path="url(#clip0_171_398)">
<path d="M23.3333 30.625V27.7083C23.3333 26.1612 22.7188 24.6775 21.6248 23.5835C20.5308 22.4896 19.0471 21.875 17.5 21.875H7.29168C5.74458 21.875 4.26085 22.4896 3.16689 23.5835C2.07293 24.6775 1.45834 26.1612 1.45834 27.7083V30.625M29.1667 11.6667V20.4167M33.5417 16.0417H24.7917M18.2292 10.2083C18.2292 13.43 15.6175 16.0417 12.3958 16.0417C9.17418 16.0417 6.56251 13.43 6.56251 10.2083C6.56251 6.98667 9.17418 4.375 12.3958 4.375C15.6175 4.375 18.2292 6.98667 18.2292 10.2083Z" stroke="#AEAEB2" stroke-width="3" stroke-linecap="round" stroke-linejoin="round"/>
</g>
<defs>
<clipPath id="clip0_171_398">
<rect width="35" height="35" fill="white"/>
</clipPath>
</defs>
</svg>
